ISO-10303-21;
HEADER;
/* Generated by software containing ST-Developer
 * from STEP Tools, Inc. (www.steptools.com) 
 */

FILE_DESCRIPTION(
/* description */ (''),
/* implementation_level */ '2;1');

FILE_NAME(
/* name */ '3ea61e38-f0d1-44e0-8339-754c75855875.stp',
/* time_stamp */ '2026-04-22T01:05:41Z',
/* author */ (''),
/* organization */ (''),
/* preprocessor_version */ 'ST-DEVELOPER v20.1',
/* originating_system */ 'Autodesk Translation Framework v15.8.0.0',
/* authorisation */ '');

FILE_SCHEMA (('AUTOMOTIVE_DESIGN { 1 0 10303 214 3 1 1 }'));
ENDSEC;

DATA;
#10=MECHANICAL_DESIGN_GEOMETRIC_PRESENTATION_REPRESENTATION('',(#13),#1105);
#11=SHAPE_REPRESENTATION_RELATIONSHIP('SRR','None',#1112,#12);
#12=ADVANCED_BREP_SHAPE_REPRESENTATION('',(#14),#1104);
#13=STYLED_ITEM('',(#1121),#14);
#14=MANIFOLD_SOLID_BREP('Body1',#669);
#15=FACE_BOUND('',#98,.T.);
#16=FACE_BOUND('',#99,.T.);
#17=FACE_BOUND('',#100,.T.);
#18=FACE_BOUND('',#101,.T.);
#19=FACE_BOUND('',#102,.T.);
#20=FACE_BOUND('',#103,.T.);
#21=FACE_BOUND('',#129,.T.);
#22=FACE_BOUND('',#130,.T.);
#23=PLANE('',#686);
#24=PLANE('',#690);
#25=PLANE('',#694);
#26=PLANE('',#698);
#27=PLANE('',#702);
#28=PLANE('',#703);
#29=PLANE('',#709);
#30=PLANE('',#714);
#31=PLANE('',#715);
#32=PLANE('',#716);
#33=PLANE('',#717);
#34=PLANE('',#718);
#35=PLANE('',#719);
#36=PLANE('',#720);
#37=PLANE('',#721);
#38=PLANE('',#722);
#39=PLANE('',#723);
#40=PLANE('',#724);
#41=PLANE('',#725);
#42=PLANE('',#726);
#43=PLANE('',#727);
#44=PLANE('',#728);
#45=PLANE('',#729);
#46=PLANE('',#730);
#47=PLANE('',#731);
#48=PLANE('',#732);
#49=PLANE('',#733);
#50=PLANE('',#734);
#51=FACE_OUTER_BOUND('',#87,.T.);
#52=FACE_OUTER_BOUND('',#88,.T.);
#53=FACE_OUTER_BOUND('',#89,.T.);
#54=FACE_OUTER_BOUND('',#90,.T.);
#55=FACE_OUTER_BOUND('',#91,.T.);
#56=FACE_OUTER_BOUND('',#92,.T.);
#57=FACE_OUTER_BOUND('',#93,.T.);
#58=FACE_OUTER_BOUND('',#94,.T.);
#59=FACE_OUTER_BOUND('',#95,.T.);
#60=FACE_OUTER_BOUND('',#96,.T.);
#61=FACE_OUTER_BOUND('',#97,.T.);
#62=FACE_OUTER_BOUND('',#104,.T.);
#63=FACE_OUTER_BOUND('',#105,.T.);
#64=FACE_OUTER_BOUND('',#106,.T.);
#65=FACE_OUTER_BOUND('',#107,.T.);
#66=FACE_OUTER_BOUND('',#108,.T.);
#67=FACE_OUTER_BOUND('',#109,.T.);
#68=FACE_OUTER_BOUND('',#110,.T.);
#69=FACE_OUTER_BOUND('',#111,.T.);
#70=FACE_OUTER_BOUND('',#112,.T.);
#71=FACE_OUTER_BOUND('',#113,.T.);
#72=FACE_OUTER_BOUND('',#114,.T.);
#73=FACE_OUTER_BOUND('',#115,.T.);
#74=FACE_OUTER_BOUND('',#116,.T.);
#75=FACE_OUTER_BOUND('',#117,.T.);
#76=FACE_OUTER_BOUND('',#118,.T.);
#77=FACE_OUTER_BOUND('',#119,.T.);
#78=FACE_OUTER_BOUND('',#120,.T.);
#79=FACE_OUTER_BOUND('',#121,.T.);
#80=FACE_OUTER_BOUND('',#122,.T.);
#81=FACE_OUTER_BOUND('',#123,.T.);
#82=FACE_OUTER_BOUND('',#124,.T.);
#83=FACE_OUTER_BOUND('',#125,.T.);
#84=FACE_OUTER_BOUND('',#126,.T.);
#85=FACE_OUTER_BOUND('',#127,.T.);
#86=FACE_OUTER_BOUND('',#128,.T.);
#87=EDGE_LOOP('',(#445,#446,#447,#448));
#88=EDGE_LOOP('',(#449));
#89=EDGE_LOOP('',(#450,#451,#452,#453));
#90=EDGE_LOOP('',(#454));
#91=EDGE_LOOP('',(#455,#456,#457,#458));
#92=EDGE_LOOP('',(#459));
#93=EDGE_LOOP('',(#460,#461,#462,#463));
#94=EDGE_LOOP('',(#464));
#95=EDGE_LOOP('',(#465,#466,#467,#468));
#96=EDGE_LOOP('',(#469,#470,#471,#472));
#97=EDGE_LOOP('',(#473,#474,#475,#476,#477,#478,#479,#480,#481,#482,#483,
#484,#485,#486,#487,#488,#489,#490));
#98=EDGE_LOOP('',(#491));
#99=EDGE_LOOP('',(#492));
#100=EDGE_LOOP('',(#493));
#101=EDGE_LOOP('',(#494));
#102=EDGE_LOOP('',(#495,#496,#497,#498));
#103=EDGE_LOOP('',(#499,#500,#501,#502));
#104=EDGE_LOOP('',(#503,#504,#505,#506));
#105=EDGE_LOOP('',(#507,#508,#509,#510));
#106=EDGE_LOOP('',(#511,#512,#513,#514));
#107=EDGE_LOOP('',(#515,#516,#517,#518));
#108=EDGE_LOOP('',(#519,#520,#521,#522));
#109=EDGE_LOOP('',(#523,#524,#525,#526));
#110=EDGE_LOOP('',(#527,#528,#529,#530));
#111=EDGE_LOOP('',(#531,#532,#533,#534));
#112=EDGE_LOOP('',(#535,#536,#537,#538));
#113=EDGE_LOOP('',(#539,#540,#541,#542));
#114=EDGE_LOOP('',(#543,#544,#545,#546));
#115=EDGE_LOOP('',(#547,#548,#549,#550));
#116=EDGE_LOOP('',(#551,#552,#553,#554));
#117=EDGE_LOOP('',(#555,#556,#557,#558));
#118=EDGE_LOOP('',(#559,#560,#561,#562));
#119=EDGE_LOOP('',(#563,#564,#565,#566));
#120=EDGE_LOOP('',(#567,#568,#569,#570));
#121=EDGE_LOOP('',(#571,#572,#573,#574));
#122=EDGE_LOOP('',(#575,#576,#577,#578));
#123=EDGE_LOOP('',(#579,#580,#581,#582));
#124=EDGE_LOOP('',(#583,#584,#585,#586));
#125=EDGE_LOOP('',(#587,#588,#589,#590));
#126=EDGE_LOOP('',(#591,#592,#593,#594));
#127=EDGE_LOOP('',(#595,#596,#597,#598));
#128=EDGE_LOOP('',(#599,#600,#601,#602,#603,#604,#605,#606,#607,#608,#609,
#610,#611,#612,#613,#614,#615,#616));
#129=EDGE_LOOP('',(#617,#618,#619,#620));
#130=EDGE_LOOP('',(#621,#622,#623,#624));
#131=LINE('',#920,#205);
#132=LINE('',#927,#206);
#133=LINE('',#934,#207);
#134=LINE('',#941,#208);
#135=LINE('',#949,#209);
#136=LINE('',#952,#210);
#137=LINE('',#955,#211);
#138=LINE('',#957,#212);
#139=LINE('',#958,#213);
#140=LINE('',#961,#214);
#141=LINE('',#965,#215);
#142=LINE('',#969,#216);
#143=LINE('',#973,#217);
#144=LINE('',#975,#218);
#145=LINE('',#977,#219);
#146=LINE('',#979,#220);
#147=LINE('',#981,#221);
#148=LINE('',#983,#222);
#149=LINE('',#985,#223);
#150=LINE('',#987,#224);
#151=LINE('',#989,#225);
#152=LINE('',#990,#226);
#153=LINE('',#993,#227);
#154=LINE('',#995,#228);
#155=LINE('',#997,#229);
#156=LINE('',#998,#230);
#157=LINE('',#1001,#231);
#158=LINE('',#1003,#232);
#159=LINE('',#1005,#233);
#160=LINE('',#1006,#234);
#161=LINE('',#1011,#235);
#162=LINE('',#1012,#236);
#163=LINE('',#1015,#237);
#164=LINE('',#1016,#238);
#165=LINE('',#1020,#239);
#166=LINE('',#1025,#240);
#167=LINE('',#1026,#241);
#168=LINE('',#1029,#242);
#169=LINE('',#1030,#243);
#170=LINE('',#1033,#244);
#171=LINE('',#1035,#245);
#172=LINE('',#1036,#246);
#173=LINE('',#1039,#247);
#174=LINE('',#1040,#248);
#175=LINE('',#1043,#249);
#176=LINE('',#1044,#250);
#177=LINE('',#1046,#251);
#178=LINE('',#1049,#252);
#179=LINE('',#1051,#253);
#180=LINE('',#1052,#254);
#181=LINE('',#1055,#255);
#182=LINE('',#1056,#256);
#183=LINE('',#1059,#257);
#184=LINE('',#1060,#258);
#185=LINE('',#1062,#259);
#186=LINE('',#1065,#260);
#187=LINE('',#1067,#261);
#188=LINE('',#1068,#262);
#189=LINE('',#1071,#263);
#190=LINE('',#1072,#264);
#191=LINE('',#1075,#265);
#192=LINE('',#1076,#266);
#193=LINE('',#1079,#267);
#194=LINE('',#1080,#268);
#195=LINE('',#1083,#269);
#196=LINE('',#1084,#270);
#197=LINE('',#1087,#271);
#198=LINE('',#1088,#272);
#199=LINE('',#1090,#273);
#200=LINE('',#1092,#274);
#201=LINE('',#1094,#275);
#202=LINE('',#1097,#276);
#203=LINE('',#1098,#277);
#204=LINE('',#1100,#278);
#205=VECTOR('',#741,2.10000000000001);
#206=VECTOR('',#750,2.10000000000003);
#207=VECTOR('',#759,2.1);
#208=VECTOR('',#768,2.09999999999999);
#209=VECTOR('',#777,10.);
#210=VECTOR('',#780,10.);
#211=VECTOR('',#783,10.);
#212=VECTOR('',#784,10.);
#213=VECTOR('',#785,10.);
#214=VECTOR('',#788,10.);
#215=VECTOR('',#791,10.);
#216=VECTOR('',#794,10.);
#217=VECTOR('',#797,10.);
#218=VECTOR('',#798,10.);
#219=VECTOR('',#799,10.);
#220=VECTOR('',#800,10.);
#221=VECTOR('',#801,10.);
#222=VECTOR('',#802,10.);
#223=VECTOR('',#803,10.);
#224=VECTOR('',#804,10.);
#225=VECTOR('',#805,10.);
#226=VECTOR('',#806,10.);
#227=VECTOR('',#807,10.);
#228=VECTOR('',#808,10.);
#229=VECTOR('',#809,10.);
#230=VECTOR('',#810,10.);
#231=VECTOR('',#811,10.);
#232=VECTOR('',#812,10.);
#233=VECTOR('',#813,10.);
#234=VECTOR('',#814,10.);
#235=VECTOR('',#819,10.);
#236=VECTOR('',#820,10.);
#237=VECTOR('',#823,10.);
#238=VECTOR('',#824,10.);
#239=VECTOR('',#829,10.);
#240=VECTOR('',#834,10.);
#241=VECTOR('',#835,10.);
#242=VECTOR('',#838,10.);
#243=VECTOR('',#839,10.);
#244=VECTOR('',#842,10.);
#245=VECTOR('',#843,10.);
#246=VECTOR('',#844,10.);
#247=VECTOR('',#847,10.);
#248=VECTOR('',#848,10.);
#249=VECTOR('',#851,10.);
#250=VECTOR('',#852,10.);
#251=VECTOR('',#855,10.);
#252=VECTOR('',#858,10.);
#253=VECTOR('',#859,10.);
#254=VECTOR('',#860,10.);
#255=VECTOR('',#863,10.);
#256=VECTOR('',#864,10.);
#257=VECTOR('',#867,10.);
#258=VECTOR('',#868,10.);
#259=VECTOR('',#871,10.);
#260=VECTOR('',#874,10.);
#261=VECTOR('',#875,10.);
#262=VECTOR('',#876,10.);
#263=VECTOR('',#879,10.);
#264=VECTOR('',#880,10.);
#265=VECTOR('',#883,10.);
#266=VECTOR('',#884,10.);
#267=VECTOR('',#887,10.);
#268=VECTOR('',#888,10.);
#269=VECTOR('',#891,10.);
#270=VECTOR('',#892,10.);
#271=VECTOR('',#895,10.);
#272=VECTOR('',#896,10.);
#273=VECTOR('',#899,10.);
#274=VECTOR('',#902,10.);
#275=VECTOR('',#905,10.);
#276=VECTOR('',#908,10.);
#277=VECTOR('',#909,10.);
#278=VECTOR('',#912,10.);
#279=CIRCLE('',#684,2.10000000000001);
#280=CIRCLE('',#685,2.10000000000001);
#281=CIRCLE('',#688,2.10000000000003);
#282=CIRCLE('',#689,2.10000000000003);
#283=CIRCLE('',#692,2.1);
#284=CIRCLE('',#693,2.1);
#285=CIRCLE('',#696,2.09999999999999);
#286=CIRCLE('',#697,2.09999999999999);
#287=CIRCLE('',#700,6.);
#288=CIRCLE('',#701,6.);
#289=CIRCLE('',#704,6.);
#290=CIRCLE('',#705,6.);
#291=CIRCLE('',#706,6.);
#292=CIRCLE('',#708,6.);
#293=CIRCLE('',#711,6.);
#294=CIRCLE('',#713,6.);
#295=VERTEX_POINT('',#917);
#296=VERTEX_POINT('',#919);
#297=VERTEX_POINT('',#924);
#298=VERTEX_POINT('',#926);
#299=VERTEX_POINT('',#931);
#300=VERTEX_POINT('',#933);
#301=VERTEX_POINT('',#938);
#302=VERTEX_POINT('',#940);
#303=VERTEX_POINT('',#945);
#304=VERTEX_POINT('',#946);
#305=VERTEX_POINT('',#948);
#306=VERTEX_POINT('',#950);
#307=VERTEX_POINT('',#954);
#308=VERTEX_POINT('',#956);
#309=VERTEX_POINT('',#960);
#310=VERTEX_POINT('',#962);
#311=VERTEX_POINT('',#964);
#312=VERTEX_POINT('',#966);
#313=VERTEX_POINT('',#968);
#314=VERTEX_POINT('',#970);
#315=VERTEX_POINT('',#972);
#316=VERTEX_POINT('',#974);
#317=VERTEX_POINT('',#976);
#318=VERTEX_POINT('',#978);
#319=VERTEX_POINT('',#980);
#320=VERTEX_POINT('',#982);
#321=VERTEX_POINT('',#984);
#322=VERTEX_POINT('',#986);
#323=VERTEX_POINT('',#988);
#324=VERTEX_POINT('',#991);
#325=VERTEX_POINT('',#992);
#326=VERTEX_POINT('',#994);
#327=VERTEX_POINT('',#996);
#328=VERTEX_POINT('',#999);
#329=VERTEX_POINT('',#1000);
#330=VERTEX_POINT('',#1002);
#331=VERTEX_POINT('',#1004);
#332=VERTEX_POINT('',#1008);
#333=VERTEX_POINT('',#1009);
#334=VERTEX_POINT('',#1014);
#335=VERTEX_POINT('',#1018);
#336=VERTEX_POINT('',#1022);
#337=VERTEX_POINT('',#1023);
#338=VERTEX_POINT('',#1028);
#339=VERTEX_POINT('',#1032);
#340=VERTEX_POINT('',#1034);
#341=VERTEX_POINT('',#1038);
#342=VERTEX_POINT('',#1042);
#343=VERTEX_POINT('',#1048);
#344=VERTEX_POINT('',#1050);
#345=VERTEX_POINT('',#1054);
#346=VERTEX_POINT('',#1058);
#347=VERTEX_POINT('',#1064);
#348=VERTEX_POINT('',#1066);
#349=VERTEX_POINT('',#1070);
#350=VERTEX_POINT('',#1074);
#351=VERTEX_POINT('',#1078);
#352=VERTEX_POINT('',#1082);
#353=VERTEX_POINT('',#1086);
#354=VERTEX_POINT('',#1096);
#355=EDGE_CURVE('',#295,#295,#279,.T.);
#356=EDGE_CURVE('',#295,#296,#131,.T.);
#357=EDGE_CURVE('',#296,#296,#280,.T.);
#358=EDGE_CURVE('',#297,#297,#281,.T.);
#359=EDGE_CURVE('',#297,#298,#132,.T.);
#360=EDGE_CURVE('',#298,#298,#282,.T.);
#361=EDGE_CURVE('',#299,#299,#283,.T.);
#362=EDGE_CURVE('',#299,#300,#133,.T.);
#363=EDGE_CURVE('',#300,#300,#284,.T.);
#364=EDGE_CURVE('',#301,#301,#285,.T.);
#365=EDGE_CURVE('',#301,#302,#134,.T.);
#366=EDGE_CURVE('',#302,#302,#286,.T.);
#367=EDGE_CURVE('',#303,#304,#287,.T.);
#368=EDGE_CURVE('',#304,#305,#135,.T.);
#369=EDGE_CURVE('',#305,#306,#288,.T.);
#370=EDGE_CURVE('',#306,#303,#136,.T.);
#371=EDGE_CURVE('',#307,#306,#137,.T.);
#372=EDGE_CURVE('',#307,#308,#138,.T.);
#373=EDGE_CURVE('',#303,#308,#139,.T.);
#374=EDGE_CURVE('',#305,#309,#140,.T.);
#375=EDGE_CURVE('',#310,#309,#289,.T.);
#376=EDGE_CURVE('',#310,#311,#141,.T.);
#377=EDGE_CURVE('',#312,#311,#290,.T.);
#378=EDGE_CURVE('',#312,#313,#142,.T.);
#379=EDGE_CURVE('',#314,#313,#291,.T.);
#380=EDGE_CURVE('',#314,#315,#143,.T.);
#381=EDGE_CURVE('',#315,#316,#144,.T.);
#382=EDGE_CURVE('',#317,#316,#145,.T.);
#383=EDGE_CURVE('',#317,#318,#146,.T.);
#384=EDGE_CURVE('',#318,#319,#147,.T.);
#385=EDGE_CURVE('',#319,#320,#148,.T.);
#386=EDGE_CURVE('',#320,#321,#149,.T.);
#387=EDGE_CURVE('',#322,#321,#150,.T.);
#388=EDGE_CURVE('',#323,#322,#151,.T.);
#389=EDGE_CURVE('',#323,#307,#152,.T.);
#390=EDGE_CURVE('',#324,#325,#153,.T.);
#391=EDGE_CURVE('',#326,#324,#154,.T.);
#392=EDGE_CURVE('',#327,#326,#155,.T.);
#393=EDGE_CURVE('',#325,#327,#156,.T.);
#394=EDGE_CURVE('',#328,#329,#157,.T.);
#395=EDGE_CURVE('',#330,#328,#158,.T.);
#396=EDGE_CURVE('',#331,#330,#159,.T.);
#397=EDGE_CURVE('',#329,#331,#160,.T.);
#398=EDGE_CURVE('',#332,#333,#292,.T.);
#399=EDGE_CURVE('',#333,#310,#161,.T.);
#400=EDGE_CURVE('',#309,#332,#162,.T.);
#401=EDGE_CURVE('',#334,#333,#163,.T.);
#402=EDGE_CURVE('',#311,#334,#164,.T.);
#403=EDGE_CURVE('',#334,#335,#293,.T.);
#404=EDGE_CURVE('',#335,#312,#165,.T.);
#405=EDGE_CURVE('',#336,#337,#294,.T.);
#406=EDGE_CURVE('',#337,#314,#166,.T.);
#407=EDGE_CURVE('',#313,#336,#167,.T.);
#408=EDGE_CURVE('',#338,#337,#168,.T.);
#409=EDGE_CURVE('',#315,#338,#169,.T.);
#410=EDGE_CURVE('',#328,#339,#170,.T.);
#411=EDGE_CURVE('',#340,#339,#171,.T.);
#412=EDGE_CURVE('',#330,#340,#172,.T.);
#413=EDGE_CURVE('',#341,#340,#173,.T.);
#414=EDGE_CURVE('',#331,#341,#174,.T.);
#415=EDGE_CURVE('',#342,#341,#175,.T.);
#416=EDGE_CURVE('',#329,#342,#176,.T.);
#417=EDGE_CURVE('',#339,#342,#177,.T.);
#418=EDGE_CURVE('',#324,#343,#178,.T.);
#419=EDGE_CURVE('',#344,#343,#179,.T.);
#420=EDGE_CURVE('',#326,#344,#180,.T.);
#421=EDGE_CURVE('',#345,#344,#181,.T.);
#422=EDGE_CURVE('',#327,#345,#182,.T.);
#423=EDGE_CURVE('',#346,#345,#183,.T.);
#424=EDGE_CURVE('',#325,#346,#184,.T.);
#425=EDGE_CURVE('',#343,#346,#185,.T.);
#426=EDGE_CURVE('',#317,#347,#186,.T.);
#427=EDGE_CURVE('',#348,#347,#187,.T.);
#428=EDGE_CURVE('',#318,#348,#188,.T.);
#429=EDGE_CURVE('',#349,#348,#189,.T.);
#430=EDGE_CURVE('',#319,#349,#190,.T.);
#431=EDGE_CURVE('',#350,#349,#191,.T.);
#432=EDGE_CURVE('',#320,#350,#192,.T.);
#433=EDGE_CURVE('',#351,#350,#193,.T.);
#434=EDGE_CURVE('',#321,#351,#194,.T.);
#435=EDGE_CURVE('',#352,#351,#195,.T.);
#436=EDGE_CURVE('',#322,#352,#196,.T.);
#437=EDGE_CURVE('',#353,#352,#197,.T.);
#438=EDGE_CURVE('',#323,#353,#198,.T.);
#439=EDGE_CURVE('',#308,#353,#199,.T.);
#440=EDGE_CURVE('',#332,#304,#200,.T.);
#441=EDGE_CURVE('',#336,#335,#201,.T.);
#442=EDGE_CURVE('',#354,#338,#202,.T.);
#443=EDGE_CURVE('',#316,#354,#203,.T.);
#444=EDGE_CURVE('',#347,#354,#204,.T.);
#445=ORIENTED_EDGE('',*,*,#355,.F.);
#446=ORIENTED_EDGE('',*,*,#356,.T.);
#447=ORIENTED_EDGE('',*,*,#357,.F.);
#448=ORIENTED_EDGE('',*,*,#356,.F.);
#449=ORIENTED_EDGE('',*,*,#355,.T.);
#450=ORIENTED_EDGE('',*,*,#358,.F.);
#451=ORIENTED_EDGE('',*,*,#359,.T.);
#452=ORIENTED_EDGE('',*,*,#360,.F.);
#453=ORIENTED_EDGE('',*,*,#359,.F.);
#454=ORIENTED_EDGE('',*,*,#358,.T.);
#455=ORIENTED_EDGE('',*,*,#361,.F.);
#456=ORIENTED_EDGE('',*,*,#362,.T.);
#457=ORIENTED_EDGE('',*,*,#363,.F.);
#458=ORIENTED_EDGE('',*,*,#362,.F.);
#459=ORIENTED_EDGE('',*,*,#361,.T.);
#460=ORIENTED_EDGE('',*,*,#364,.F.);
#461=ORIENTED_EDGE('',*,*,#365,.T.);
#462=ORIENTED_EDGE('',*,*,#366,.F.);
#463=ORIENTED_EDGE('',*,*,#365,.F.);
#464=ORIENTED_EDGE('',*,*,#364,.T.);
#465=ORIENTED_EDGE('',*,*,#367,.T.);
#466=ORIENTED_EDGE('',*,*,#368,.T.);
#467=ORIENTED_EDGE('',*,*,#369,.T.);
#468=ORIENTED_EDGE('',*,*,#370,.T.);
#469=ORIENTED_EDGE('',*,*,#370,.F.);
#470=ORIENTED_EDGE('',*,*,#371,.F.);
#471=ORIENTED_EDGE('',*,*,#372,.T.);
#472=ORIENTED_EDGE('',*,*,#373,.F.);
#473=ORIENTED_EDGE('',*,*,#369,.F.);
#474=ORIENTED_EDGE('',*,*,#374,.T.);
#475=ORIENTED_EDGE('',*,*,#375,.F.);
#476=ORIENTED_EDGE('',*,*,#376,.T.);
#477=ORIENTED_EDGE('',*,*,#377,.F.);
#478=ORIENTED_EDGE('',*,*,#378,.T.);
#479=ORIENTED_EDGE('',*,*,#379,.F.);
#480=ORIENTED_EDGE('',*,*,#380,.T.);
#481=ORIENTED_EDGE('',*,*,#381,.T.);
#482=ORIENTED_EDGE('',*,*,#382,.F.);
#483=ORIENTED_EDGE('',*,*,#383,.T.);
#484=ORIENTED_EDGE('',*,*,#384,.T.);
#485=ORIENTED_EDGE('',*,*,#385,.T.);
#486=ORIENTED_EDGE('',*,*,#386,.T.);
#487=ORIENTED_EDGE('',*,*,#387,.F.);
#488=ORIENTED_EDGE('',*,*,#388,.F.);
#489=ORIENTED_EDGE('',*,*,#389,.T.);
#490=ORIENTED_EDGE('',*,*,#371,.T.);
#491=ORIENTED_EDGE('',*,*,#357,.T.);
#492=ORIENTED_EDGE('',*,*,#360,.T.);
#493=ORIENTED_EDGE('',*,*,#363,.T.);
#494=ORIENTED_EDGE('',*,*,#366,.T.);
#495=ORIENTED_EDGE('',*,*,#390,.F.);
#496=ORIENTED_EDGE('',*,*,#391,.F.);
#497=ORIENTED_EDGE('',*,*,#392,.F.);
#498=ORIENTED_EDGE('',*,*,#393,.F.);
#499=ORIENTED_EDGE('',*,*,#394,.F.);
#500=ORIENTED_EDGE('',*,*,#395,.F.);
#501=ORIENTED_EDGE('',*,*,#396,.F.);
#502=ORIENTED_EDGE('',*,*,#397,.F.);
#503=ORIENTED_EDGE('',*,*,#398,.T.);
#504=ORIENTED_EDGE('',*,*,#399,.T.);
#505=ORIENTED_EDGE('',*,*,#375,.T.);
#506=ORIENTED_EDGE('',*,*,#400,.T.);
#507=ORIENTED_EDGE('',*,*,#399,.F.);
#508=ORIENTED_EDGE('',*,*,#401,.F.);
#509=ORIENTED_EDGE('',*,*,#402,.F.);
#510=ORIENTED_EDGE('',*,*,#376,.F.);
#511=ORIENTED_EDGE('',*,*,#403,.T.);
#512=ORIENTED_EDGE('',*,*,#404,.T.);
#513=ORIENTED_EDGE('',*,*,#377,.T.);
#514=ORIENTED_EDGE('',*,*,#402,.T.);
#515=ORIENTED_EDGE('',*,*,#405,.T.);
#516=ORIENTED_EDGE('',*,*,#406,.T.);
#517=ORIENTED_EDGE('',*,*,#379,.T.);
#518=ORIENTED_EDGE('',*,*,#407,.T.);
#519=ORIENTED_EDGE('',*,*,#406,.F.);
#520=ORIENTED_EDGE('',*,*,#408,.F.);
#521=ORIENTED_EDGE('',*,*,#409,.F.);
#522=ORIENTED_EDGE('',*,*,#380,.F.);
#523=ORIENTED_EDGE('',*,*,#395,.T.);
#524=ORIENTED_EDGE('',*,*,#410,.T.);
#525=ORIENTED_EDGE('',*,*,#411,.F.);
#526=ORIENTED_EDGE('',*,*,#412,.F.);
#527=ORIENTED_EDGE('',*,*,#396,.T.);
#528=ORIENTED_EDGE('',*,*,#412,.T.);
#529=ORIENTED_EDGE('',*,*,#413,.F.);
#530=ORIENTED_EDGE('',*,*,#414,.F.);
#531=ORIENTED_EDGE('',*,*,#397,.T.);
#532=ORIENTED_EDGE('',*,*,#414,.T.);
#533=ORIENTED_EDGE('',*,*,#415,.F.);
#534=ORIENTED_EDGE('',*,*,#416,.F.);
#535=ORIENTED_EDGE('',*,*,#394,.T.);
#536=ORIENTED_EDGE('',*,*,#416,.T.);
#537=ORIENTED_EDGE('',*,*,#417,.F.);
#538=ORIENTED_EDGE('',*,*,#410,.F.);
#539=ORIENTED_EDGE('',*,*,#391,.T.);
#540=ORIENTED_EDGE('',*,*,#418,.T.);
#541=ORIENTED_EDGE('',*,*,#419,.F.);
#542=ORIENTED_EDGE('',*,*,#420,.F.);
#543=ORIENTED_EDGE('',*,*,#392,.T.);
#544=ORIENTED_EDGE('',*,*,#420,.T.);
#545=ORIENTED_EDGE('',*,*,#421,.F.);
#546=ORIENTED_EDGE('',*,*,#422,.F.);
#547=ORIENTED_EDGE('',*,*,#393,.T.);
#548=ORIENTED_EDGE('',*,*,#422,.T.);
#549=ORIENTED_EDGE('',*,*,#423,.F.);
#550=ORIENTED_EDGE('',*,*,#424,.F.);
#551=ORIENTED_EDGE('',*,*,#390,.T.);
#552=ORIENTED_EDGE('',*,*,#424,.T.);
#553=ORIENTED_EDGE('',*,*,#425,.F.);
#554=ORIENTED_EDGE('',*,*,#418,.F.);
#555=ORIENTED_EDGE('',*,*,#383,.F.);
#556=ORIENTED_EDGE('',*,*,#426,.T.);
#557=ORIENTED_EDGE('',*,*,#427,.F.);
#558=ORIENTED_EDGE('',*,*,#428,.F.);
#559=ORIENTED_EDGE('',*,*,#384,.F.);
#560=ORIENTED_EDGE('',*,*,#428,.T.);
#561=ORIENTED_EDGE('',*,*,#429,.F.);
#562=ORIENTED_EDGE('',*,*,#430,.F.);
#563=ORIENTED_EDGE('',*,*,#385,.F.);
#564=ORIENTED_EDGE('',*,*,#430,.T.);
#565=ORIENTED_EDGE('',*,*,#431,.F.);
#566=ORIENTED_EDGE('',*,*,#432,.F.);
#567=ORIENTED_EDGE('',*,*,#386,.F.);
#568=ORIENTED_EDGE('',*,*,#432,.T.);
#569=ORIENTED_EDGE('',*,*,#433,.F.);
#570=ORIENTED_EDGE('',*,*,#434,.F.);
#571=ORIENTED_EDGE('',*,*,#387,.T.);
#572=ORIENTED_EDGE('',*,*,#434,.T.);
#573=ORIENTED_EDGE('',*,*,#435,.F.);
#574=ORIENTED_EDGE('',*,*,#436,.F.);
#575=ORIENTED_EDGE('',*,*,#388,.T.);
#576=ORIENTED_EDGE('',*,*,#436,.T.);
#577=ORIENTED_EDGE('',*,*,#437,.F.);
#578=ORIENTED_EDGE('',*,*,#438,.F.);
#579=ORIENTED_EDGE('',*,*,#389,.F.);
#580=ORIENTED_EDGE('',*,*,#438,.T.);
#581=ORIENTED_EDGE('',*,*,#439,.F.);
#582=ORIENTED_EDGE('',*,*,#372,.F.);
#583=ORIENTED_EDGE('',*,*,#368,.F.);
#584=ORIENTED_EDGE('',*,*,#440,.F.);
#585=ORIENTED_EDGE('',*,*,#400,.F.);
#586=ORIENTED_EDGE('',*,*,#374,.F.);
#587=ORIENTED_EDGE('',*,*,#404,.F.);
#588=ORIENTED_EDGE('',*,*,#441,.F.);
#589=ORIENTED_EDGE('',*,*,#407,.F.);
#590=ORIENTED_EDGE('',*,*,#378,.F.);
#591=ORIENTED_EDGE('',*,*,#381,.F.);
#592=ORIENTED_EDGE('',*,*,#409,.T.);
#593=ORIENTED_EDGE('',*,*,#442,.F.);
#594=ORIENTED_EDGE('',*,*,#443,.F.);
#595=ORIENTED_EDGE('',*,*,#382,.T.);
#596=ORIENTED_EDGE('',*,*,#443,.T.);
#597=ORIENTED_EDGE('',*,*,#444,.F.);
#598=ORIENTED_EDGE('',*,*,#426,.F.);
#599=ORIENTED_EDGE('',*,*,#367,.F.);
#600=ORIENTED_EDGE('',*,*,#373,.T.);
#601=ORIENTED_EDGE('',*,*,#439,.T.);
#602=ORIENTED_EDGE('',*,*,#437,.T.);
#603=ORIENTED_EDGE('',*,*,#435,.T.);
#604=ORIENTED_EDGE('',*,*,#433,.T.);
#605=ORIENTED_EDGE('',*,*,#431,.T.);
#606=ORIENTED_EDGE('',*,*,#429,.T.);
#607=ORIENTED_EDGE('',*,*,#427,.T.);
#608=ORIENTED_EDGE('',*,*,#444,.T.);
#609=ORIENTED_EDGE('',*,*,#442,.T.);
#610=ORIENTED_EDGE('',*,*,#408,.T.);
#611=ORIENTED_EDGE('',*,*,#405,.F.);
#612=ORIENTED_EDGE('',*,*,#441,.T.);
#613=ORIENTED_EDGE('',*,*,#403,.F.);
#614=ORIENTED_EDGE('',*,*,#401,.T.);
#615=ORIENTED_EDGE('',*,*,#398,.F.);
#616=ORIENTED_EDGE('',*,*,#440,.T.);
#617=ORIENTED_EDGE('',*,*,#425,.T.);
#618=ORIENTED_EDGE('',*,*,#423,.T.);
#619=ORIENTED_EDGE('',*,*,#421,.T.);
#620=ORIENTED_EDGE('',*,*,#419,.T.);
#621=ORIENTED_EDGE('',*,*,#417,.T.);
#622=ORIENTED_EDGE('',*,*,#415,.T.);
#623=ORIENTED_EDGE('',*,*,#413,.T.);
#624=ORIENTED_EDGE('',*,*,#411,.T.);
#625=CYLINDRICAL_SURFACE('',#683,2.10000000000001);
#626=CYLINDRICAL_SURFACE('',#687,2.10000000000003);
#627=CYLINDRICAL_SURFACE('',#691,2.1);
#628=CYLINDRICAL_SURFACE('',#695,2.09999999999999);
#629=CYLINDRICAL_SURFACE('',#699,6.);
#630=CYLINDRICAL_SURFACE('',#707,6.);
#631=CYLINDRICAL_SURFACE('',#710,6.);
#632=CYLINDRICAL_SURFACE('',#712,6.);
#633=ADVANCED_FACE('',(#51),#625,.T.);
#634=ADVANCED_FACE('',(#52),#23,.F.);
#635=ADVANCED_FACE('',(#53),#626,.T.);
#636=ADVANCED_FACE('',(#54),#24,.F.);
#637=ADVANCED_FACE('',(#55),#627,.T.);
#638=ADVANCED_FACE('',(#56),#25,.F.);
#639=ADVANCED_FACE('',(#57),#628,.T.);
#640=ADVANCED_FACE('',(#58),#26,.F.);
#641=ADVANCED_FACE('',(#59),#629,.T.);
#642=ADVANCED_FACE('',(#60),#27,.T.);
#643=ADVANCED_FACE('',(#61,#15,#16,#17,#18,#19,#20),#28,.F.);
#644=ADVANCED_FACE('',(#62),#630,.T.);
#645=ADVANCED_FACE('',(#63),#29,.T.);
#646=ADVANCED_FACE('',(#64),#631,.T.);
#647=ADVANCED_FACE('',(#65),#632,.T.);
#648=ADVANCED_FACE('',(#66),#30,.T.);
#649=ADVANCED_FACE('',(#67),#31,.T.);
#650=ADVANCED_FACE('',(#68),#32,.T.);
#651=ADVANCED_FACE('',(#69),#33,.T.);
#652=ADVANCED_FACE('',(#70),#34,.T.);
#653=ADVANCED_FACE('',(#71),#35,.T.);
#654=ADVANCED_FACE('',(#72),#36,.T.);
#655=ADVANCED_FACE('',(#73),#37,.T.);
#656=ADVANCED_FACE('',(#74),#38,.T.);
#657=ADVANCED_FACE('',(#75),#39,.T.);
#658=ADVANCED_FACE('',(#76),#40,.T.);
#659=ADVANCED_FACE('',(#77),#41,.T.);
#660=ADVANCED_FACE('',(#78),#42,.T.);
#661=ADVANCED_FACE('',(#79),#43,.T.);
#662=ADVANCED_FACE('',(#80),#44,.T.);
#663=ADVANCED_FACE('',(#81),#45,.T.);
#664=ADVANCED_FACE('',(#82),#46,.T.);
#665=ADVANCED_FACE('',(#83),#47,.T.);
#666=ADVANCED_FACE('',(#84),#48,.T.);
#667=ADVANCED_FACE('',(#85),#49,.T.);
#668=ADVANCED_FACE('',(#86,#21,#22),#50,.T.);
#669=CLOSED_SHELL('',(#633,#634,#635,#636,#637,#638,#639,#640,#641,#642,
#643,#644,#645,#646,#647,#648,#649,#650,#651,#652,#653,#654,#655,#656,#657,
#658,#659,#660,#661,#662,#663,#664,#665,#666,#667,#668));
#670=DERIVED_UNIT_ELEMENT(#672,1.);
#671=DERIVED_UNIT_ELEMENT(#1107,-3.);
#672=(
MASS_UNIT()
NAMED_UNIT(*)
SI_UNIT(.KILO.,.GRAM.)
);
#673=DERIVED_UNIT((#670,#671));
#674=MEASURE_REPRESENTATION_ITEM('density measure',
POSITIVE_RATIO_MEASURE(7850.),#673);
#675=PROPERTY_DEFINITION_REPRESENTATION(#680,#677);
#676=PROPERTY_DEFINITION_REPRESENTATION(#681,#678);
#677=REPRESENTATION('material name',(#679),#1104);
#678=REPRESENTATION('density',(#674),#1104);
#679=DESCRIPTIVE_REPRESENTATION_ITEM('Steel','Steel');
#680=PROPERTY_DEFINITION('material property','material name',#1114);
#681=PROPERTY_DEFINITION('material property','density of part',#1114);
#682=AXIS2_PLACEMENT_3D('',#915,#735,#736);
#683=AXIS2_PLACEMENT_3D('',#916,#737,#738);
#684=AXIS2_PLACEMENT_3D('',#918,#739,#740);
#685=AXIS2_PLACEMENT_3D('',#921,#742,#743);
#686=AXIS2_PLACEMENT_3D('',#922,#744,#745);
#687=AXIS2_PLACEMENT_3D('',#923,#746,#747);
#688=AXIS2_PLACEMENT_3D('',#925,#748,#749);
#689=AXIS2_PLACEMENT_3D('',#928,#751,#752);
#690=AXIS2_PLACEMENT_3D('',#929,#753,#754);
#691=AXIS2_PLACEMENT_3D('',#930,#755,#756);
#692=AXIS2_PLACEMENT_3D('',#932,#757,#758);
#693=AXIS2_PLACEMENT_3D('',#935,#760,#761);
#694=AXIS2_PLACEMENT_3D('',#936,#762,#763);
#695=AXIS2_PLACEMENT_3D('',#937,#764,#765);
#696=AXIS2_PLACEMENT_3D('',#939,#766,#767);
#697=AXIS2_PLACEMENT_3D('',#942,#769,#770);
#698=AXIS2_PLACEMENT_3D('',#943,#771,#772);
#699=AXIS2_PLACEMENT_3D('',#944,#773,#774);
#700=AXIS2_PLACEMENT_3D('',#947,#775,#776);
#701=AXIS2_PLACEMENT_3D('',#951,#778,#779);
#702=AXIS2_PLACEMENT_3D('',#953,#781,#782);
#703=AXIS2_PLACEMENT_3D('',#959,#786,#787);
#704=AXIS2_PLACEMENT_3D('',#963,#789,#790);
#705=AXIS2_PLACEMENT_3D('',#967,#792,#793);
#706=AXIS2_PLACEMENT_3D('',#971,#795,#796);
#707=AXIS2_PLACEMENT_3D('',#1007,#815,#816);
#708=AXIS2_PLACEMENT_3D('',#1010,#817,#818);
#709=AXIS2_PLACEMENT_3D('',#1013,#821,#822);
#710=AXIS2_PLACEMENT_3D('',#1017,#825,#826);
#711=AXIS2_PLACEMENT_3D('',#1019,#827,#828);
#712=AXIS2_PLACEMENT_3D('',#1021,#830,#831);
#713=AXIS2_PLACEMENT_3D('',#1024,#832,#833);
#714=AXIS2_PLACEMENT_3D('',#1027,#836,#837);
#715=AXIS2_PLACEMENT_3D('',#1031,#840,#841);
#716=AXIS2_PLACEMENT_3D('',#1037,#845,#846);
#717=AXIS2_PLACEMENT_3D('',#1041,#849,#850);
#718=AXIS2_PLACEMENT_3D('',#1045,#853,#854);
#719=AXIS2_PLACEMENT_3D('',#1047,#856,#857);
#720=AXIS2_PLACEMENT_3D('',#1053,#861,#862);
#721=AXIS2_PLACEMENT_3D('',#1057,#865,#866);
#722=AXIS2_PLACEMENT_3D('',#1061,#869,#870);
#723=AXIS2_PLACEMENT_3D('',#1063,#872,#873);
#724=AXIS2_PLACEMENT_3D('',#1069,#877,#878);
#725=AXIS2_PLACEMENT_3D('',#1073,#881,#882);
#726=AXIS2_PLACEMENT_3D('',#1077,#885,#886);
#727=AXIS2_PLACEMENT_3D('',#1081,#889,#890);
#728=AXIS2_PLACEMENT_3D('',#1085,#893,#894);
#729=AXIS2_PLACEMENT_3D('',#1089,#897,#898);
#730=AXIS2_PLACEMENT_3D('',#1091,#900,#901);
#731=AXIS2_PLACEMENT_3D('',#1093,#903,#904);
#732=AXIS2_PLACEMENT_3D('',#1095,#906,#907);
#733=AXIS2_PLACEMENT_3D('',#1099,#910,#911);
#734=AXIS2_PLACEMENT_3D('',#1101,#913,#914);
#735=DIRECTION('axis',(0.,0.,1.));
#736=DIRECTION('refdir',(1.,0.,0.));
#737=DIRECTION('center_axis',(0.,0.,-1.));
#738=DIRECTION('ref_axis',(-1.,0.,0.));
#739=DIRECTION('center_axis',(0.,0.,-1.));
#740=DIRECTION('ref_axis',(-1.,0.,0.));
#741=DIRECTION('',(0.,0.,1.));
#742=DIRECTION('center_axis',(0.,0.,1.));
#743=DIRECTION('ref_axis',(-1.,0.,0.));
#744=DIRECTION('center_axis',(0.,0.,1.));
#745=DIRECTION('ref_axis',(-1.,0.,0.));
#746=DIRECTION('center_axis',(0.,0.,-1.));
#747=DIRECTION('ref_axis',(-1.,0.,0.));
#748=DIRECTION('center_axis',(0.,0.,-1.));
#749=DIRECTION('ref_axis',(-1.,0.,0.));
#750=DIRECTION('',(0.,0.,1.));
#751=DIRECTION('center_axis',(0.,0.,1.));
#752=DIRECTION('ref_axis',(-1.,0.,0.));
#753=DIRECTION('center_axis',(0.,0.,1.));
#754=DIRECTION('ref_axis',(-1.,0.,0.));
#755=DIRECTION('center_axis',(0.,0.,-1.));
#756=DIRECTION('ref_axis',(-1.,0.,0.));
#757=DIRECTION('center_axis',(0.,0.,-1.));
#758=DIRECTION('ref_axis',(-1.,0.,0.));
#759=DIRECTION('',(0.,0.,1.));
#760=DIRECTION('center_axis',(0.,0.,1.));
#761=DIRECTION('ref_axis',(-1.,0.,0.));
#762=DIRECTION('center_axis',(0.,0.,1.));
#763=DIRECTION('ref_axis',(-1.,0.,0.));
#764=DIRECTION('center_axis',(0.,0.,-1.));
#765=DIRECTION('ref_axis',(-1.,0.,0.));
#766=DIRECTION('center_axis',(0.,0.,-1.));
#767=DIRECTION('ref_axis',(-1.,0.,0.));
#768=DIRECTION('',(0.,0.,1.));
#769=DIRECTION('center_axis',(0.,0.,1.));
#770=DIRECTION('ref_axis',(-1.,0.,0.));
#771=DIRECTION('center_axis',(0.,0.,1.));
#772=DIRECTION('ref_axis',(-1.,0.,0.));
#773=DIRECTION('center_axis',(0.,0.,1.));
#774=DIRECTION('ref_axis',(-0.707106781186547,-0.707106781186548,0.));
#775=DIRECTION('center_axis',(0.,0.,-1.));
#776=DIRECTION('ref_axis',(-0.707106781186547,-0.707106781186548,0.));
#777=DIRECTION('',(0.,0.,-1.));
#778=DIRECTION('center_axis',(0.,0.,1.));
#779=DIRECTION('ref_axis',(-0.707106781186547,-0.707106781186548,0.));
#780=DIRECTION('',(0.,0.,1.));
#781=DIRECTION('center_axis',(0.,-1.,0.));
#782=DIRECTION('ref_axis',(1.,0.,0.));
#783=DIRECTION('',(-1.,0.,0.));
#784=DIRECTION('',(0.,0.,1.));
#785=DIRECTION('',(1.,0.,0.));
#786=DIRECTION('center_axis',(0.,0.,1.));
#787=DIRECTION('ref_axis',(1.,0.,0.));
#788=DIRECTION('',(0.,1.,0.));
#789=DIRECTION('center_axis',(0.,0.,1.));
#790=DIRECTION('ref_axis',(-0.707106781186548,0.707106781186547,0.));
#791=DIRECTION('',(1.,0.,0.));
#792=DIRECTION('center_axis',(0.,0.,1.));
#793=DIRECTION('ref_axis',(0.707106781186549,0.707106781186546,0.));
#794=DIRECTION('',(0.,-1.,0.));
#795=DIRECTION('center_axis',(0.,0.,1.));
#796=DIRECTION('ref_axis',(0.707106781186548,-0.707106781186548,0.));
#797=DIRECTION('',(-1.,0.,0.));
#798=DIRECTION('',(0.,1.,0.));
#799=DIRECTION('',(-1.,0.,0.));
#800=DIRECTION('',(0.,1.,0.));
#801=DIRECTION('',(-1.,0.,0.));
#802=DIRECTION('',(0.,1.,0.));
#803=DIRECTION('',(-1.,0.,0.));
#804=DIRECTION('',(0.,1.,0.));
#805=DIRECTION('',(-1.,0.,0.));
#806=DIRECTION('',(0.,-1.,0.));
#807=DIRECTION('',(0.,1.,0.));
#808=DIRECTION('',(-1.,0.,0.));
#809=DIRECTION('',(0.,-1.,0.));
#810=DIRECTION('',(1.,0.,0.));
#811=DIRECTION('',(1.,0.,0.));
#812=DIRECTION('',(0.,1.,0.));
#813=DIRECTION('',(-1.,0.,0.));
#814=DIRECTION('',(0.,-1.,0.));
#815=DIRECTION('center_axis',(0.,0.,1.));
#816=DIRECTION('ref_axis',(-0.707106781186548,0.707106781186547,0.));
#817=DIRECTION('center_axis',(0.,0.,-1.));
#818=DIRECTION('ref_axis',(-0.707106781186548,0.707106781186547,0.));
#819=DIRECTION('',(0.,0.,-1.));
#820=DIRECTION('',(0.,0.,1.));
#821=DIRECTION('center_axis',(0.,1.,0.));
#822=DIRECTION('ref_axis',(-1.,0.,0.));
#823=DIRECTION('',(-1.,0.,0.));
#824=DIRECTION('',(0.,0.,1.));
#825=DIRECTION('center_axis',(0.,0.,1.));
#826=DIRECTION('ref_axis',(0.707106781186549,0.707106781186546,0.));
#827=DIRECTION('center_axis',(0.,0.,-1.));
#828=DIRECTION('ref_axis',(0.707106781186549,0.707106781186546,0.));
#829=DIRECTION('',(0.,0.,-1.));
#830=DIRECTION('center_axis',(0.,0.,1.));
#831=DIRECTION('ref_axis',(0.707106781186548,-0.707106781186548,0.));
#832=DIRECTION('center_axis',(0.,0.,-1.));
#833=DIRECTION('ref_axis',(0.707106781186548,-0.707106781186548,0.));
#834=DIRECTION('',(0.,0.,-1.));
#835=DIRECTION('',(0.,0.,1.));
#836=DIRECTION('center_axis',(0.,-1.,0.));
#837=DIRECTION('ref_axis',(1.,0.,0.));
#838=DIRECTION('',(1.,0.,0.));
#839=DIRECTION('',(0.,0.,1.));
#840=DIRECTION('center_axis',(1.,0.,0.));
#841=DIRECTION('ref_axis',(0.,1.,0.));
#842=DIRECTION('',(0.,0.,1.));
#843=DIRECTION('',(0.,1.,0.));
#844=DIRECTION('',(0.,0.,1.));
#845=DIRECTION('center_axis',(0.,1.,0.));
#846=DIRECTION('ref_axis',(-1.,0.,0.));
#847=DIRECTION('',(-1.,0.,0.));
#848=DIRECTION('',(0.,0.,1.));
#849=DIRECTION('center_axis',(-1.,0.,0.));
#850=DIRECTION('ref_axis',(0.,-1.,0.));
#851=DIRECTION('',(0.,-1.,0.));
#852=DIRECTION('',(0.,0.,1.));
#853=DIRECTION('center_axis',(0.,-1.,0.));
#854=DIRECTION('ref_axis',(1.,0.,0.));
#855=DIRECTION('',(1.,0.,0.));
#856=DIRECTION('center_axis',(0.,1.,0.));
#857=DIRECTION('ref_axis',(-1.,0.,0.));
#858=DIRECTION('',(0.,0.,1.));
#859=DIRECTION('',(-1.,0.,0.));
#860=DIRECTION('',(0.,0.,1.));
#861=DIRECTION('center_axis',(-1.,0.,0.));
#862=DIRECTION('ref_axis',(0.,-1.,0.));
#863=DIRECTION('',(0.,-1.,0.));
#864=DIRECTION('',(0.,0.,1.));
#865=DIRECTION('center_axis',(0.,-1.,0.));
#866=DIRECTION('ref_axis',(1.,0.,0.));
#867=DIRECTION('',(1.,0.,0.));
#868=DIRECTION('',(0.,0.,1.));
#869=DIRECTION('center_axis',(1.,0.,0.));
#870=DIRECTION('ref_axis',(0.,1.,0.));
#871=DIRECTION('',(0.,1.,0.));
#872=DIRECTION('center_axis',(-1.,0.,0.));
#873=DIRECTION('ref_axis',(0.,-1.,0.));
#874=DIRECTION('',(0.,0.,1.));
#875=DIRECTION('',(0.,-1.,0.));
#876=DIRECTION('',(0.,0.,1.));
#877=DIRECTION('center_axis',(0.,-1.,0.));
#878=DIRECTION('ref_axis',(1.,0.,0.));
#879=DIRECTION('',(1.,0.,0.));
#880=DIRECTION('',(0.,0.,1.));
#881=DIRECTION('center_axis',(-1.,0.,0.));
#882=DIRECTION('ref_axis',(0.,-1.,0.));
#883=DIRECTION('',(0.,-1.,0.));
#884=DIRECTION('',(0.,0.,1.));
#885=DIRECTION('center_axis',(0.,-1.,0.));
#886=DIRECTION('ref_axis',(1.,0.,0.));
#887=DIRECTION('',(1.,0.,0.));
#888=DIRECTION('',(0.,0.,1.));
#889=DIRECTION('center_axis',(1.,0.,0.));
#890=DIRECTION('ref_axis',(0.,1.,0.));
#891=DIRECTION('',(0.,1.,0.));
#892=DIRECTION('',(0.,0.,1.));
#893=DIRECTION('center_axis',(0.,1.,0.));
#894=DIRECTION('ref_axis',(-1.,0.,0.));
#895=DIRECTION('',(-1.,0.,0.));
#896=DIRECTION('',(0.,0.,1.));
#897=DIRECTION('center_axis',(1.,0.,0.));
#898=DIRECTION('ref_axis',(0.,1.,0.));
#899=DIRECTION('',(0.,1.,0.));
#900=DIRECTION('center_axis',(-1.,0.,0.));
#901=DIRECTION('ref_axis',(0.,-1.,0.));
#902=DIRECTION('',(0.,-1.,0.));
#903=DIRECTION('center_axis',(1.,0.,0.));
#904=DIRECTION('ref_axis',(0.,1.,0.));
#905=DIRECTION('',(0.,1.,0.));
#906=DIRECTION('center_axis',(-1.,0.,0.));
#907=DIRECTION('ref_axis',(0.,-1.,0.));
#908=DIRECTION('',(0.,-1.,0.));
#909=DIRECTION('',(0.,0.,1.));
#910=DIRECTION('center_axis',(0.,1.,0.));
#911=DIRECTION('ref_axis',(-1.,0.,0.));
#912=DIRECTION('',(-1.,0.,0.));
#913=DIRECTION('center_axis',(0.,0.,1.));
#914=DIRECTION('ref_axis',(1.,0.,0.));
#915=CARTESIAN_POINT('',(0.,0.,0.));
#916=CARTESIAN_POINT('Origin',(161.6875,19.,2.));
#917=CARTESIAN_POINT('',(163.7875,19.,-4.));
#918=CARTESIAN_POINT('Origin',(161.6875,19.,-4.));
#919=CARTESIAN_POINT('',(163.7875,19.,0.));
#920=CARTESIAN_POINT('',(163.7875,19.,2.));
#921=CARTESIAN_POINT('Origin',(161.6875,19.,0.));
#922=CARTESIAN_POINT('Origin',(161.6875,19.,-4.));
#923=CARTESIAN_POINT('Origin',(161.6875,-180.5,2.));
#924=CARTESIAN_POINT('',(163.7875,-180.5,-4.));
#925=CARTESIAN_POINT('Origin',(161.6875,-180.5,-4.));
#926=CARTESIAN_POINT('',(163.7875,-180.5,0.));
#927=CARTESIAN_POINT('',(163.7875,-180.5,2.));
#928=CARTESIAN_POINT('Origin',(161.6875,-180.5,0.));
#929=CARTESIAN_POINT('Origin',(161.6875,-180.5,-4.));
#930=CARTESIAN_POINT('Origin',(-14.,19.,2.));
#931=CARTESIAN_POINT('',(-11.9,19.,-4.));
#932=CARTESIAN_POINT('Origin',(-14.,19.,-4.));
#933=CARTESIAN_POINT('',(-11.9,19.,0.));
#934=CARTESIAN_POINT('',(-11.9,19.,2.));
#935=CARTESIAN_POINT('Origin',(-14.,19.,0.));
#936=CARTESIAN_POINT('Origin',(-14.,19.,-4.));
#937=CARTESIAN_POINT('Origin',(-14.0000002086163,-180.5,2.));
#938=CARTESIAN_POINT('',(-11.9000002086163,-180.5,-4.));
#939=CARTESIAN_POINT('Origin',(-14.0000002086163,-180.5,-4.));
#940=CARTESIAN_POINT('',(-11.9000002086163,-180.5,0.));
#941=CARTESIAN_POINT('',(-11.9000002086163,-180.5,2.));
#942=CARTESIAN_POINT('Origin',(-14.0000002086163,-180.5,0.));
#943=CARTESIAN_POINT('Origin',(-14.0000002086163,-180.5,-4.));
#944=CARTESIAN_POINT('Origin',(-14.,-180.5,0.));
#945=CARTESIAN_POINT('',(-14.,-186.5,2.));
#946=CARTESIAN_POINT('',(-20.,-180.5,2.));
#947=CARTESIAN_POINT('Origin',(-14.,-180.5,2.));
#948=CARTESIAN_POINT('',(-20.,-180.5,0.));
#949=CARTESIAN_POINT('',(-20.,-180.5,0.));
#950=CARTESIAN_POINT('',(-14.,-186.5,0.));
#951=CARTESIAN_POINT('Origin',(-14.,-180.5,0.));
#952=CARTESIAN_POINT('',(-14.,-186.5,0.));
#953=CARTESIAN_POINT('Origin',(-20.,-186.5,0.));
#954=CARTESIAN_POINT('',(-5.,-186.5,0.));
#955=CARTESIAN_POINT('',(167.6875,-186.5,0.));
#956=CARTESIAN_POINT('',(-5.,-186.5,2.));
#957=CARTESIAN_POINT('',(-5.,-186.5,0.));
#958=CARTESIAN_POINT('',(167.6875,-186.5,2.));
#959=CARTESIAN_POINT('Origin',(73.84375,-80.75,0.));
#960=CARTESIAN_POINT('',(-20.,19.,0.));
#961=CARTESIAN_POINT('',(-20.,-186.5,0.));
#962=CARTESIAN_POINT('',(-14.,25.,0.));
#963=CARTESIAN_POINT('Origin',(-14.,19.,0.));
#964=CARTESIAN_POINT('',(161.6875,25.,0.));
#965=CARTESIAN_POINT('',(-20.,25.,0.));
#966=CARTESIAN_POINT('',(167.6875,19.,0.));
#967=CARTESIAN_POINT('Origin',(161.6875,19.,0.));
#968=CARTESIAN_POINT('',(167.6875,-180.5,0.));
#969=CARTESIAN_POINT('',(167.6875,25.,0.));
#970=CARTESIAN_POINT('',(161.6875,-186.5,0.));
#971=CARTESIAN_POINT('Origin',(161.6875,-180.5,0.));
#972=CARTESIAN_POINT('',(15.,-186.5,0.));
#973=CARTESIAN_POINT('',(167.6875,-186.5,0.));
#974=CARTESIAN_POINT('',(15.,-176.5,0.));
#975=CARTESIAN_POINT('',(15.,-186.5,0.));
#976=CARTESIAN_POINT('',(121.6875,-176.5,0.));
#977=CARTESIAN_POINT('',(157.6875,-176.5,0.));
#978=CARTESIAN_POINT('',(121.6875,-151.,0.));
#979=CARTESIAN_POINT('',(121.6875,-176.5,0.));
#980=CARTESIAN_POINT('',(14.0000002086163,-151.,0.));
#981=CARTESIAN_POINT('',(18.,-151.,0.));
#982=CARTESIAN_POINT('',(14.0000002086163,-141.000002101064,0.));
#983=CARTESIAN_POINT('',(14.0000002086163,-151.,0.));
#984=CARTESIAN_POINT('',(-10.,-141.,0.));
#985=CARTESIAN_POINT('',(18.,-141.,0.));
#986=CARTESIAN_POINT('',(-10.,-176.5,0.));
#987=CARTESIAN_POINT('',(-10.,-176.5,0.));
#988=CARTESIAN_POINT('',(-5.,-176.5,0.));
#989=CARTESIAN_POINT('',(157.6875,-176.5,0.));
#990=CARTESIAN_POINT('',(-5.,-176.5,0.));
#991=CARTESIAN_POINT('',(18.,-141.,0.));
#992=CARTESIAN_POINT('',(18.,15.,0.));
#993=CARTESIAN_POINT('',(18.,15.,0.));
#994=CARTESIAN_POINT('',(44.,-141.,0.));
#995=CARTESIAN_POINT('',(18.,-141.,0.));
#996=CARTESIAN_POINT('',(44.,15.,0.));
#997=CARTESIAN_POINT('',(44.,-141.,0.));
#998=CARTESIAN_POINT('',(-10.,15.,0.));
#999=CARTESIAN_POINT('',(54.,15.,0.));
#1000=CARTESIAN_POINT('',(157.6875,15.,0.));
#1001=CARTESIAN_POINT('',(-10.,15.,0.));
#1002=CARTESIAN_POINT('',(54.,-141.,0.));
#1003=CARTESIAN_POINT('',(54.,15.,0.));
#1004=CARTESIAN_POINT('',(157.6875,-141.,0.));
#1005=CARTESIAN_POINT('',(44.,-141.,0.));
#1006=CARTESIAN_POINT('',(157.6875,15.,0.));
#1007=CARTESIAN_POINT('Origin',(-14.,19.,0.));
#1008=CARTESIAN_POINT('',(-20.,19.,2.));
#1009=CARTESIAN_POINT('',(-14.,25.,2.));
#1010=CARTESIAN_POINT('Origin',(-14.,19.,2.));
#1011=CARTESIAN_POINT('',(-14.,25.,0.));
#1012=CARTESIAN_POINT('',(-20.,19.,0.));
#1013=CARTESIAN_POINT('Origin',(167.6875,25.,0.));
#1014=CARTESIAN_POINT('',(161.6875,25.,2.));
#1015=CARTESIAN_POINT('',(-20.,25.,2.));
#1016=CARTESIAN_POINT('',(161.6875,25.,0.));
#1017=CARTESIAN_POINT('Origin',(161.6875,19.,0.));
#1018=CARTESIAN_POINT('',(167.6875,19.,2.));
#1019=CARTESIAN_POINT('Origin',(161.6875,19.,2.));
#1020=CARTESIAN_POINT('',(167.6875,19.,0.));
#1021=CARTESIAN_POINT('Origin',(161.6875,-180.5,0.));
#1022=CARTESIAN_POINT('',(167.6875,-180.5,2.));
#1023=CARTESIAN_POINT('',(161.6875,-186.5,2.));
#1024=CARTESIAN_POINT('Origin',(161.6875,-180.5,2.));
#1025=CARTESIAN_POINT('',(161.6875,-186.5,0.));
#1026=CARTESIAN_POINT('',(167.6875,-180.5,0.));
#1027=CARTESIAN_POINT('Origin',(15.,-186.5,0.));
#1028=CARTESIAN_POINT('',(15.,-186.5,2.));
#1029=CARTESIAN_POINT('',(167.6875,-186.5,2.));
#1030=CARTESIAN_POINT('',(15.,-186.5,0.));
#1031=CARTESIAN_POINT('Origin',(54.,-141.,0.));
#1032=CARTESIAN_POINT('',(54.,15.,2.));
#1033=CARTESIAN_POINT('',(54.,15.,0.));
#1034=CARTESIAN_POINT('',(54.,-141.,2.));
#1035=CARTESIAN_POINT('',(54.,15.,2.));
#1036=CARTESIAN_POINT('',(54.,-141.,0.));
#1037=CARTESIAN_POINT('Origin',(157.6875,-141.,0.));
#1038=CARTESIAN_POINT('',(157.6875,-141.,2.));
#1039=CARTESIAN_POINT('',(44.,-141.,2.));
#1040=CARTESIAN_POINT('',(157.6875,-141.,0.));
#1041=CARTESIAN_POINT('Origin',(157.6875,15.,0.));
#1042=CARTESIAN_POINT('',(157.6875,15.,2.));
#1043=CARTESIAN_POINT('',(157.6875,15.,2.));
#1044=CARTESIAN_POINT('',(157.6875,15.,0.));
#1045=CARTESIAN_POINT('Origin',(54.,15.,0.));
#1046=CARTESIAN_POINT('',(-10.,15.,2.));
#1047=CARTESIAN_POINT('Origin',(44.,-141.,0.));
#1048=CARTESIAN_POINT('',(18.,-141.,2.));
#1049=CARTESIAN_POINT('',(18.,-141.,0.));
#1050=CARTESIAN_POINT('',(44.,-141.,2.));
#1051=CARTESIAN_POINT('',(18.,-141.,2.));
#1052=CARTESIAN_POINT('',(44.,-141.,0.));
#1053=CARTESIAN_POINT('Origin',(44.,15.,0.));
#1054=CARTESIAN_POINT('',(44.,15.,2.));
#1055=CARTESIAN_POINT('',(44.,-141.,2.));
#1056=CARTESIAN_POINT('',(44.,15.,0.));
#1057=CARTESIAN_POINT('Origin',(18.,15.,0.));
#1058=CARTESIAN_POINT('',(18.,15.,2.));
#1059=CARTESIAN_POINT('',(-10.,15.,2.));
#1060=CARTESIAN_POINT('',(18.,15.,0.));
#1061=CARTESIAN_POINT('Origin',(18.,-141.,0.));
#1062=CARTESIAN_POINT('',(18.,15.,2.));
#1063=CARTESIAN_POINT('Origin',(121.6875,-151.,0.));
#1064=CARTESIAN_POINT('',(121.6875,-176.5,2.));
#1065=CARTESIAN_POINT('',(121.6875,-176.5,0.));
#1066=CARTESIAN_POINT('',(121.6875,-151.,2.));
#1067=CARTESIAN_POINT('',(121.6875,-176.5,2.));
#1068=CARTESIAN_POINT('',(121.6875,-151.,0.));
#1069=CARTESIAN_POINT('Origin',(14.0000002086163,-151.,0.));
#1070=CARTESIAN_POINT('',(14.0000002086163,-151.,2.));
#1071=CARTESIAN_POINT('',(18.,-151.,2.));
#1072=CARTESIAN_POINT('',(14.0000002086163,-151.,0.));
#1073=CARTESIAN_POINT('Origin',(14.0000002086163,-141.000002101064,0.));
#1074=CARTESIAN_POINT('',(14.0000002086163,-141.000002101064,2.));
#1075=CARTESIAN_POINT('',(14.0000002086163,-151.,2.));
#1076=CARTESIAN_POINT('',(14.0000002086163,-141.000002101064,0.));
#1077=CARTESIAN_POINT('Origin',(-10.,-141.,0.));
#1078=CARTESIAN_POINT('',(-10.,-141.,2.));
#1079=CARTESIAN_POINT('',(18.,-141.,2.));
#1080=CARTESIAN_POINT('',(-10.,-141.,0.));
#1081=CARTESIAN_POINT('Origin',(-10.,-176.5,0.));
#1082=CARTESIAN_POINT('',(-10.,-176.5,2.));
#1083=CARTESIAN_POINT('',(-10.,-176.5,2.));
#1084=CARTESIAN_POINT('',(-10.,-176.5,0.));
#1085=CARTESIAN_POINT('Origin',(-5.,-176.5,0.));
#1086=CARTESIAN_POINT('',(-5.,-176.5,2.));
#1087=CARTESIAN_POINT('',(157.6875,-176.5,2.));
#1088=CARTESIAN_POINT('',(-5.,-176.5,0.));
#1089=CARTESIAN_POINT('Origin',(-5.,-186.5,0.));
#1090=CARTESIAN_POINT('',(-5.,-176.5,2.));
#1091=CARTESIAN_POINT('Origin',(-20.,25.,0.));
#1092=CARTESIAN_POINT('',(-20.,-186.5,2.));
#1093=CARTESIAN_POINT('Origin',(167.6875,-186.5,0.));
#1094=CARTESIAN_POINT('',(167.6875,25.,2.));
#1095=CARTESIAN_POINT('Origin',(15.,-176.5,0.));
#1096=CARTESIAN_POINT('',(15.,-176.5,2.));
#1097=CARTESIAN_POINT('',(15.,-186.5,2.));
#1098=CARTESIAN_POINT('',(15.,-176.5,0.));
#1099=CARTESIAN_POINT('Origin',(121.6875,-176.5,0.));
#1100=CARTESIAN_POINT('',(157.6875,-176.5,2.));
#1101=CARTESIAN_POINT('Origin',(73.84375,-80.75,2.));
#1102=UNCERTAINTY_MEASURE_WITH_UNIT(LENGTH_MEASURE(0.01),#1106,
'DISTANCE_ACCURACY_VALUE',
'Maximum model space distance between geometric entities at asserted c
onnectivities');
#1103=UNCERTAINTY_MEASURE_WITH_UNIT(LENGTH_MEASURE(0.01),#1106,
'DISTANCE_ACCURACY_VALUE',
'Maximum model space distance between geometric entities at asserted c
onnectivities');
#1104=(
GEOMETRIC_REPRESENTATION_CONTEXT(3)
GLOBAL_UNCERTAINTY_ASSIGNED_CONTEXT((#1102))
GLOBAL_UNIT_ASSIGNED_CONTEXT((#1106,#1108,#1109))
REPRESENTATION_CONTEXT('','3D')
);
#1105=(
GEOMETRIC_REPRESENTATION_CONTEXT(3)
GLOBAL_UNCERTAINTY_ASSIGNED_CONTEXT((#1103))
GLOBAL_UNIT_ASSIGNED_CONTEXT((#1106,#1108,#1109))
REPRESENTATION_CONTEXT('','3D')
);
#1106=(
LENGTH_UNIT()
NAMED_UNIT(*)
SI_UNIT(.MILLI.,.METRE.)
);
#1107=(
LENGTH_UNIT()
NAMED_UNIT(*)
SI_UNIT($,.METRE.)
);
#1108=(
NAMED_UNIT(*)
PLANE_ANGLE_UNIT()
SI_UNIT($,.RADIAN.)
);
#1109=(
NAMED_UNIT(*)
SI_UNIT($,.STERADIAN.)
SOLID_ANGLE_UNIT()
);
#1110=SHAPE_DEFINITION_REPRESENTATION(#1111,#1112);
#1111=PRODUCT_DEFINITION_SHAPE('',$,#1114);
#1112=SHAPE_REPRESENTATION('',(#682),#1104);
#1113=PRODUCT_DEFINITION_CONTEXT('part definition',#1118,'design');
#1114=PRODUCT_DEFINITION('2026-04-16-19-10-06-869',
'EasySplit-Left-Top v17',#1115,#1113);
#1115=PRODUCT_DEFINITION_FORMATION('',$,#1120);
#1116=PRODUCT_RELATED_PRODUCT_CATEGORY('EasySplit-Left-Top v17',
'EasySplit-Left-Top v17',(#1120));
#1117=APPLICATION_PROTOCOL_DEFINITION('international standard',
'automotive_design',2009,#1118);
#1118=APPLICATION_CONTEXT(
'Core Data for Automotive Mechanical Design Process');
#1119=PRODUCT_CONTEXT('part definition',#1118,'mechanical');
#1120=PRODUCT('2026-04-16-19-10-06-869','EasySplit-Left-Top v17',$,(#1119));
#1121=PRESENTATION_STYLE_ASSIGNMENT((#1122));
#1122=SURFACE_STYLE_USAGE(.BOTH.,#1123);
#1123=SURFACE_SIDE_STYLE('',(#1124));
#1124=SURFACE_STYLE_FILL_AREA(#1125);
#1125=FILL_AREA_STYLE('Steel - Satin',(#1126));
#1126=FILL_AREA_STYLE_COLOUR('Steel - Satin',#1127);
#1127=COLOUR_RGB('Steel - Satin',0.627450980392157,0.627450980392157,0.627450980392157);
ENDSEC;
END-ISO-10303-21;
