ISO-10303-21;
HEADER;
/* Generated by software containing ST-Developer
 * from STEP Tools, Inc. (www.steptools.com) 
 */

FILE_DESCRIPTION(
/* description */ (''),
/* implementation_level */ '2;1');

FILE_NAME(
/* name */ '3c91232e-5849-4492-9002-5a58f2442965.stp',
/* time_stamp */ '2026-04-22T01:05:34Z',
/* author */ (''),
/* organization */ (''),
/* preprocessor_version */ 'ST-DEVELOPER v20.1',
/* originating_system */ 'Autodesk Translation Framework v15.8.0.0',
/* authorisation */ '');

FILE_SCHEMA (('AUTOMOTIVE_DESIGN { 1 0 10303 214 3 1 1 }'));
ENDSEC;

DATA;
#10=MECHANICAL_DESIGN_GEOMETRIC_PRESENTATION_REPRESENTATION('',(#13),#1035);
#11=SHAPE_REPRESENTATION_RELATIONSHIP('SRR','None',#1042,#12);
#12=ADVANCED_BREP_SHAPE_REPRESENTATION('',(#14),#1034);
#13=STYLED_ITEM('',(#1051),#14);
#14=MANIFOLD_SOLID_BREP('Body3',#623);
#15=FACE_BOUND('',#92,.T.);
#16=FACE_BOUND('',#116,.T.);
#17=FACE_BOUND('',#117,.T.);
#18=FACE_BOUND('',#118,.T.);
#19=FACE_BOUND('',#119,.T.);
#20=FACE_BOUND('',#120,.T.);
#21=PLANE('',#640);
#22=PLANE('',#644);
#23=PLANE('',#648);
#24=PLANE('',#652);
#25=PLANE('',#656);
#26=PLANE('',#657);
#27=PLANE('',#663);
#28=PLANE('',#668);
#29=PLANE('',#669);
#30=PLANE('',#670);
#31=PLANE('',#671);
#32=PLANE('',#672);
#33=PLANE('',#673);
#34=PLANE('',#674);
#35=PLANE('',#675);
#36=PLANE('',#676);
#37=PLANE('',#677);
#38=PLANE('',#678);
#39=PLANE('',#679);
#40=PLANE('',#680);
#41=PLANE('',#681);
#42=PLANE('',#682);
#43=PLANE('',#683);
#44=PLANE('',#684);
#45=PLANE('',#685);
#46=PLANE('',#686);
#47=FACE_OUTER_BOUND('',#81,.T.);
#48=FACE_OUTER_BOUND('',#82,.T.);
#49=FACE_OUTER_BOUND('',#83,.T.);
#50=FACE_OUTER_BOUND('',#84,.T.);
#51=FACE_OUTER_BOUND('',#85,.T.);
#52=FACE_OUTER_BOUND('',#86,.T.);
#53=FACE_OUTER_BOUND('',#87,.T.);
#54=FACE_OUTER_BOUND('',#88,.T.);
#55=FACE_OUTER_BOUND('',#89,.T.);
#56=FACE_OUTER_BOUND('',#90,.T.);
#57=FACE_OUTER_BOUND('',#91,.T.);
#58=FACE_OUTER_BOUND('',#93,.T.);
#59=FACE_OUTER_BOUND('',#94,.T.);
#60=FACE_OUTER_BOUND('',#95,.T.);
#61=FACE_OUTER_BOUND('',#96,.T.);
#62=FACE_OUTER_BOUND('',#97,.T.);
#63=FACE_OUTER_BOUND('',#98,.T.);
#64=FACE_OUTER_BOUND('',#99,.T.);
#65=FACE_OUTER_BOUND('',#100,.T.);
#66=FACE_OUTER_BOUND('',#101,.T.);
#67=FACE_OUTER_BOUND('',#102,.T.);
#68=FACE_OUTER_BOUND('',#103,.T.);
#69=FACE_OUTER_BOUND('',#104,.T.);
#70=FACE_OUTER_BOUND('',#105,.T.);
#71=FACE_OUTER_BOUND('',#106,.T.);
#72=FACE_OUTER_BOUND('',#107,.T.);
#73=FACE_OUTER_BOUND('',#108,.T.);
#74=FACE_OUTER_BOUND('',#109,.T.);
#75=FACE_OUTER_BOUND('',#110,.T.);
#76=FACE_OUTER_BOUND('',#111,.T.);
#77=FACE_OUTER_BOUND('',#112,.T.);
#78=FACE_OUTER_BOUND('',#113,.T.);
#79=FACE_OUTER_BOUND('',#114,.T.);
#80=FACE_OUTER_BOUND('',#115,.T.);
#81=EDGE_LOOP('',(#413,#414,#415,#416));
#82=EDGE_LOOP('',(#417));
#83=EDGE_LOOP('',(#418,#419,#420,#421));
#84=EDGE_LOOP('',(#422));
#85=EDGE_LOOP('',(#423,#424,#425,#426));
#86=EDGE_LOOP('',(#427));
#87=EDGE_LOOP('',(#428,#429,#430,#431));
#88=EDGE_LOOP('',(#432));
#89=EDGE_LOOP('',(#433,#434,#435,#436));
#90=EDGE_LOOP('',(#437,#438,#439,#440));
#91=EDGE_LOOP('',(#441,#442,#443,#444,#445,#446,#447,#448,#449,#450,#451,
#452,#453,#454,#455,#456,#457,#458));
#92=EDGE_LOOP('',(#459,#460,#461,#462,#463,#464));
#93=EDGE_LOOP('',(#465,#466,#467,#468));
#94=EDGE_LOOP('',(#469,#470,#471,#472));
#95=EDGE_LOOP('',(#473,#474,#475,#476));
#96=EDGE_LOOP('',(#477,#478,#479,#480));
#97=EDGE_LOOP('',(#481,#482,#483,#484));
#98=EDGE_LOOP('',(#485,#486,#487,#488));
#99=EDGE_LOOP('',(#489,#490,#491,#492));
#100=EDGE_LOOP('',(#493,#494,#495,#496));
#101=EDGE_LOOP('',(#497,#498,#499,#500));
#102=EDGE_LOOP('',(#501,#502,#503,#504));
#103=EDGE_LOOP('',(#505,#506,#507,#508));
#104=EDGE_LOOP('',(#509,#510,#511,#512));
#105=EDGE_LOOP('',(#513,#514,#515,#516));
#106=EDGE_LOOP('',(#517,#518,#519,#520));
#107=EDGE_LOOP('',(#521,#522,#523,#524));
#108=EDGE_LOOP('',(#525,#526,#527,#528));
#109=EDGE_LOOP('',(#529,#530,#531,#532));
#110=EDGE_LOOP('',(#533,#534,#535,#536));
#111=EDGE_LOOP('',(#537,#538,#539,#540));
#112=EDGE_LOOP('',(#541,#542,#543,#544));
#113=EDGE_LOOP('',(#545,#546,#547,#548));
#114=EDGE_LOOP('',(#549,#550,#551,#552));
#115=EDGE_LOOP('',(#553,#554,#555,#556,#557,#558,#559,#560,#561,#562,#563,
#564,#565,#566,#567,#568,#569,#570));
#116=EDGE_LOOP('',(#571));
#117=EDGE_LOOP('',(#572));
#118=EDGE_LOOP('',(#573));
#119=EDGE_LOOP('',(#574));
#120=EDGE_LOOP('',(#575,#576,#577,#578,#579,#580));
#121=LINE('',#862,#189);
#122=LINE('',#869,#190);
#123=LINE('',#876,#191);
#124=LINE('',#883,#192);
#125=LINE('',#891,#193);
#126=LINE('',#894,#194);
#127=LINE('',#897,#195);
#128=LINE('',#899,#196);
#129=LINE('',#900,#197);
#130=LINE('',#903,#198);
#131=LINE('',#907,#199);
#132=LINE('',#911,#200);
#133=LINE('',#915,#201);
#134=LINE('',#917,#202);
#135=LINE('',#919,#203);
#136=LINE('',#921,#204);
#137=LINE('',#923,#205);
#138=LINE('',#925,#206);
#139=LINE('',#927,#207);
#140=LINE('',#929,#208);
#141=LINE('',#931,#209);
#142=LINE('',#932,#210);
#143=LINE('',#935,#211);
#144=LINE('',#937,#212);
#145=LINE('',#939,#213);
#146=LINE('',#941,#214);
#147=LINE('',#943,#215);
#148=LINE('',#944,#216);
#149=LINE('',#949,#217);
#150=LINE('',#950,#218);
#151=LINE('',#953,#219);
#152=LINE('',#954,#220);
#153=LINE('',#958,#221);
#154=LINE('',#963,#222);
#155=LINE('',#964,#223);
#156=LINE('',#967,#224);
#157=LINE('',#968,#225);
#158=LINE('',#971,#226);
#159=LINE('',#973,#227);
#160=LINE('',#974,#228);
#161=LINE('',#977,#229);
#162=LINE('',#978,#230);
#163=LINE('',#981,#231);
#164=LINE('',#982,#232);
#165=LINE('',#985,#233);
#166=LINE('',#986,#234);
#167=LINE('',#989,#235);
#168=LINE('',#990,#236);
#169=LINE('',#992,#237);
#170=LINE('',#995,#238);
#171=LINE('',#997,#239);
#172=LINE('',#998,#240);
#173=LINE('',#1001,#241);
#174=LINE('',#1002,#242);
#175=LINE('',#1005,#243);
#176=LINE('',#1006,#244);
#177=LINE('',#1009,#245);
#178=LINE('',#1010,#246);
#179=LINE('',#1013,#247);
#180=LINE('',#1014,#248);
#181=LINE('',#1017,#249);
#182=LINE('',#1018,#250);
#183=LINE('',#1020,#251);
#184=LINE('',#1022,#252);
#185=LINE('',#1024,#253);
#186=LINE('',#1027,#254);
#187=LINE('',#1028,#255);
#188=LINE('',#1030,#256);
#189=VECTOR('',#693,2.09999999999997);
#190=VECTOR('',#702,2.09999999999999);
#191=VECTOR('',#711,2.10000000000001);
#192=VECTOR('',#720,2.1);
#193=VECTOR('',#729,10.);
#194=VECTOR('',#732,10.);
#195=VECTOR('',#735,10.);
#196=VECTOR('',#736,10.);
#197=VECTOR('',#737,10.);
#198=VECTOR('',#740,10.);
#199=VECTOR('',#743,10.);
#200=VECTOR('',#746,10.);
#201=VECTOR('',#749,10.);
#202=VECTOR('',#750,10.);
#203=VECTOR('',#751,10.);
#204=VECTOR('',#752,10.);
#205=VECTOR('',#753,10.);
#206=VECTOR('',#754,10.);
#207=VECTOR('',#755,10.);
#208=VECTOR('',#756,10.);
#209=VECTOR('',#757,10.);
#210=VECTOR('',#758,10.);
#211=VECTOR('',#759,10.);
#212=VECTOR('',#760,10.);
#213=VECTOR('',#761,10.);
#214=VECTOR('',#762,10.);
#215=VECTOR('',#763,10.);
#216=VECTOR('',#764,10.);
#217=VECTOR('',#769,10.);
#218=VECTOR('',#770,10.);
#219=VECTOR('',#773,10.);
#220=VECTOR('',#774,10.);
#221=VECTOR('',#779,10.);
#222=VECTOR('',#784,10.);
#223=VECTOR('',#785,10.);
#224=VECTOR('',#788,10.);
#225=VECTOR('',#789,10.);
#226=VECTOR('',#792,10.);
#227=VECTOR('',#793,10.);
#228=VECTOR('',#794,10.);
#229=VECTOR('',#797,10.);
#230=VECTOR('',#798,10.);
#231=VECTOR('',#801,10.);
#232=VECTOR('',#802,10.);
#233=VECTOR('',#805,10.);
#234=VECTOR('',#806,10.);
#235=VECTOR('',#809,10.);
#236=VECTOR('',#810,10.);
#237=VECTOR('',#813,10.);
#238=VECTOR('',#816,10.);
#239=VECTOR('',#817,10.);
#240=VECTOR('',#818,10.);
#241=VECTOR('',#821,10.);
#242=VECTOR('',#822,10.);
#243=VECTOR('',#825,10.);
#244=VECTOR('',#826,10.);
#245=VECTOR('',#829,10.);
#246=VECTOR('',#830,10.);
#247=VECTOR('',#833,10.);
#248=VECTOR('',#834,10.);
#249=VECTOR('',#837,10.);
#250=VECTOR('',#838,10.);
#251=VECTOR('',#841,10.);
#252=VECTOR('',#844,10.);
#253=VECTOR('',#847,10.);
#254=VECTOR('',#850,10.);
#255=VECTOR('',#851,10.);
#256=VECTOR('',#854,10.);
#257=CIRCLE('',#638,2.09999999999997);
#258=CIRCLE('',#639,2.09999999999997);
#259=CIRCLE('',#642,2.09999999999999);
#260=CIRCLE('',#643,2.09999999999999);
#261=CIRCLE('',#646,2.10000000000001);
#262=CIRCLE('',#647,2.10000000000001);
#263=CIRCLE('',#650,2.1);
#264=CIRCLE('',#651,2.1);
#265=CIRCLE('',#654,6.);
#266=CIRCLE('',#655,6.);
#267=CIRCLE('',#658,6.);
#268=CIRCLE('',#659,6.);
#269=CIRCLE('',#660,6.);
#270=CIRCLE('',#662,6.);
#271=CIRCLE('',#665,6.);
#272=CIRCLE('',#667,6.);
#273=VERTEX_POINT('',#859);
#274=VERTEX_POINT('',#861);
#275=VERTEX_POINT('',#866);
#276=VERTEX_POINT('',#868);
#277=VERTEX_POINT('',#873);
#278=VERTEX_POINT('',#875);
#279=VERTEX_POINT('',#880);
#280=VERTEX_POINT('',#882);
#281=VERTEX_POINT('',#887);
#282=VERTEX_POINT('',#888);
#283=VERTEX_POINT('',#890);
#284=VERTEX_POINT('',#892);
#285=VERTEX_POINT('',#896);
#286=VERTEX_POINT('',#898);
#287=VERTEX_POINT('',#902);
#288=VERTEX_POINT('',#904);
#289=VERTEX_POINT('',#906);
#290=VERTEX_POINT('',#908);
#291=VERTEX_POINT('',#910);
#292=VERTEX_POINT('',#912);
#293=VERTEX_POINT('',#914);
#294=VERTEX_POINT('',#916);
#295=VERTEX_POINT('',#918);
#296=VERTEX_POINT('',#920);
#297=VERTEX_POINT('',#922);
#298=VERTEX_POINT('',#924);
#299=VERTEX_POINT('',#926);
#300=VERTEX_POINT('',#928);
#301=VERTEX_POINT('',#930);
#302=VERTEX_POINT('',#933);
#303=VERTEX_POINT('',#934);
#304=VERTEX_POINT('',#936);
#305=VERTEX_POINT('',#938);
#306=VERTEX_POINT('',#940);
#307=VERTEX_POINT('',#942);
#308=VERTEX_POINT('',#946);
#309=VERTEX_POINT('',#947);
#310=VERTEX_POINT('',#952);
#311=VERTEX_POINT('',#956);
#312=VERTEX_POINT('',#960);
#313=VERTEX_POINT('',#961);
#314=VERTEX_POINT('',#966);
#315=VERTEX_POINT('',#970);
#316=VERTEX_POINT('',#972);
#317=VERTEX_POINT('',#976);
#318=VERTEX_POINT('',#980);
#319=VERTEX_POINT('',#984);
#320=VERTEX_POINT('',#988);
#321=VERTEX_POINT('',#994);
#322=VERTEX_POINT('',#996);
#323=VERTEX_POINT('',#1000);
#324=VERTEX_POINT('',#1004);
#325=VERTEX_POINT('',#1008);
#326=VERTEX_POINT('',#1012);
#327=VERTEX_POINT('',#1016);
#328=VERTEX_POINT('',#1026);
#329=EDGE_CURVE('',#273,#273,#257,.T.);
#330=EDGE_CURVE('',#273,#274,#121,.T.);
#331=EDGE_CURVE('',#274,#274,#258,.T.);
#332=EDGE_CURVE('',#275,#275,#259,.T.);
#333=EDGE_CURVE('',#275,#276,#122,.T.);
#334=EDGE_CURVE('',#276,#276,#260,.T.);
#335=EDGE_CURVE('',#277,#277,#261,.T.);
#336=EDGE_CURVE('',#277,#278,#123,.T.);
#337=EDGE_CURVE('',#278,#278,#262,.T.);
#338=EDGE_CURVE('',#279,#279,#263,.T.);
#339=EDGE_CURVE('',#279,#280,#124,.T.);
#340=EDGE_CURVE('',#280,#280,#264,.T.);
#341=EDGE_CURVE('',#281,#282,#265,.T.);
#342=EDGE_CURVE('',#282,#283,#125,.T.);
#343=EDGE_CURVE('',#283,#284,#266,.T.);
#344=EDGE_CURVE('',#284,#281,#126,.T.);
#345=EDGE_CURVE('',#285,#284,#127,.T.);
#346=EDGE_CURVE('',#285,#286,#128,.T.);
#347=EDGE_CURVE('',#281,#286,#129,.F.);
#348=EDGE_CURVE('',#283,#287,#130,.T.);
#349=EDGE_CURVE('',#288,#287,#267,.T.);
#350=EDGE_CURVE('',#288,#289,#131,.T.);
#351=EDGE_CURVE('',#290,#289,#268,.T.);
#352=EDGE_CURVE('',#290,#291,#132,.T.);
#353=EDGE_CURVE('',#292,#291,#269,.T.);
#354=EDGE_CURVE('',#292,#293,#133,.T.);
#355=EDGE_CURVE('',#293,#294,#134,.T.);
#356=EDGE_CURVE('',#295,#294,#135,.T.);
#357=EDGE_CURVE('',#295,#296,#136,.T.);
#358=EDGE_CURVE('',#296,#297,#137,.T.);
#359=EDGE_CURVE('',#297,#298,#138,.T.);
#360=EDGE_CURVE('',#298,#299,#139,.T.);
#361=EDGE_CURVE('',#300,#299,#140,.T.);
#362=EDGE_CURVE('',#301,#300,#141,.T.);
#363=EDGE_CURVE('',#301,#285,#142,.T.);
#364=EDGE_CURVE('',#302,#303,#143,.T.);
#365=EDGE_CURVE('',#304,#302,#144,.T.);
#366=EDGE_CURVE('',#305,#304,#145,.T.);
#367=EDGE_CURVE('',#306,#305,#146,.T.);
#368=EDGE_CURVE('',#307,#306,#147,.T.);
#369=EDGE_CURVE('',#303,#307,#148,.T.);
#370=EDGE_CURVE('',#308,#309,#270,.T.);
#371=EDGE_CURVE('',#309,#288,#149,.T.);
#372=EDGE_CURVE('',#287,#308,#150,.T.);
#373=EDGE_CURVE('',#310,#309,#151,.F.);
#374=EDGE_CURVE('',#289,#310,#152,.T.);
#375=EDGE_CURVE('',#310,#311,#271,.T.);
#376=EDGE_CURVE('',#311,#290,#153,.T.);
#377=EDGE_CURVE('',#312,#313,#272,.T.);
#378=EDGE_CURVE('',#313,#292,#154,.T.);
#379=EDGE_CURVE('',#291,#312,#155,.T.);
#380=EDGE_CURVE('',#314,#313,#156,.F.);
#381=EDGE_CURVE('',#293,#314,#157,.T.);
#382=EDGE_CURVE('',#302,#315,#158,.T.);
#383=EDGE_CURVE('',#316,#315,#159,.F.);
#384=EDGE_CURVE('',#304,#316,#160,.T.);
#385=EDGE_CURVE('',#317,#316,#161,.F.);
#386=EDGE_CURVE('',#305,#317,#162,.T.);
#387=EDGE_CURVE('',#318,#317,#163,.F.);
#388=EDGE_CURVE('',#306,#318,#164,.T.);
#389=EDGE_CURVE('',#319,#318,#165,.F.);
#390=EDGE_CURVE('',#307,#319,#166,.T.);
#391=EDGE_CURVE('',#320,#319,#167,.F.);
#392=EDGE_CURVE('',#303,#320,#168,.T.);
#393=EDGE_CURVE('',#315,#320,#169,.F.);
#394=EDGE_CURVE('',#295,#321,#170,.T.);
#395=EDGE_CURVE('',#322,#321,#171,.F.);
#396=EDGE_CURVE('',#296,#322,#172,.T.);
#397=EDGE_CURVE('',#323,#322,#173,.F.);
#398=EDGE_CURVE('',#297,#323,#174,.T.);
#399=EDGE_CURVE('',#324,#323,#175,.F.);
#400=EDGE_CURVE('',#298,#324,#176,.T.);
#401=EDGE_CURVE('',#325,#324,#177,.F.);
#402=EDGE_CURVE('',#299,#325,#178,.T.);
#403=EDGE_CURVE('',#326,#325,#179,.F.);
#404=EDGE_CURVE('',#300,#326,#180,.T.);
#405=EDGE_CURVE('',#327,#326,#181,.F.);
#406=EDGE_CURVE('',#301,#327,#182,.T.);
#407=EDGE_CURVE('',#286,#327,#183,.F.);
#408=EDGE_CURVE('',#308,#282,#184,.F.);
#409=EDGE_CURVE('',#312,#311,#185,.F.);
#410=EDGE_CURVE('',#328,#314,#186,.F.);
#411=EDGE_CURVE('',#294,#328,#187,.T.);
#412=EDGE_CURVE('',#321,#328,#188,.F.);
#413=ORIENTED_EDGE('',*,*,#329,.F.);
#414=ORIENTED_EDGE('',*,*,#330,.T.);
#415=ORIENTED_EDGE('',*,*,#331,.F.);
#416=ORIENTED_EDGE('',*,*,#330,.F.);
#417=ORIENTED_EDGE('',*,*,#329,.T.);
#418=ORIENTED_EDGE('',*,*,#332,.F.);
#419=ORIENTED_EDGE('',*,*,#333,.T.);
#420=ORIENTED_EDGE('',*,*,#334,.F.);
#421=ORIENTED_EDGE('',*,*,#333,.F.);
#422=ORIENTED_EDGE('',*,*,#332,.T.);
#423=ORIENTED_EDGE('',*,*,#335,.F.);
#424=ORIENTED_EDGE('',*,*,#336,.T.);
#425=ORIENTED_EDGE('',*,*,#337,.F.);
#426=ORIENTED_EDGE('',*,*,#336,.F.);
#427=ORIENTED_EDGE('',*,*,#335,.T.);
#428=ORIENTED_EDGE('',*,*,#338,.F.);
#429=ORIENTED_EDGE('',*,*,#339,.T.);
#430=ORIENTED_EDGE('',*,*,#340,.F.);
#431=ORIENTED_EDGE('',*,*,#339,.F.);
#432=ORIENTED_EDGE('',*,*,#338,.T.);
#433=ORIENTED_EDGE('',*,*,#341,.T.);
#434=ORIENTED_EDGE('',*,*,#342,.T.);
#435=ORIENTED_EDGE('',*,*,#343,.T.);
#436=ORIENTED_EDGE('',*,*,#344,.T.);
#437=ORIENTED_EDGE('',*,*,#344,.F.);
#438=ORIENTED_EDGE('',*,*,#345,.F.);
#439=ORIENTED_EDGE('',*,*,#346,.T.);
#440=ORIENTED_EDGE('',*,*,#347,.F.);
#441=ORIENTED_EDGE('',*,*,#343,.F.);
#442=ORIENTED_EDGE('',*,*,#348,.T.);
#443=ORIENTED_EDGE('',*,*,#349,.F.);
#444=ORIENTED_EDGE('',*,*,#350,.T.);
#445=ORIENTED_EDGE('',*,*,#351,.F.);
#446=ORIENTED_EDGE('',*,*,#352,.T.);
#447=ORIENTED_EDGE('',*,*,#353,.F.);
#448=ORIENTED_EDGE('',*,*,#354,.T.);
#449=ORIENTED_EDGE('',*,*,#355,.T.);
#450=ORIENTED_EDGE('',*,*,#356,.F.);
#451=ORIENTED_EDGE('',*,*,#357,.T.);
#452=ORIENTED_EDGE('',*,*,#358,.T.);
#453=ORIENTED_EDGE('',*,*,#359,.T.);
#454=ORIENTED_EDGE('',*,*,#360,.T.);
#455=ORIENTED_EDGE('',*,*,#361,.F.);
#456=ORIENTED_EDGE('',*,*,#362,.F.);
#457=ORIENTED_EDGE('',*,*,#363,.T.);
#458=ORIENTED_EDGE('',*,*,#345,.T.);
#459=ORIENTED_EDGE('',*,*,#364,.F.);
#460=ORIENTED_EDGE('',*,*,#365,.F.);
#461=ORIENTED_EDGE('',*,*,#366,.F.);
#462=ORIENTED_EDGE('',*,*,#367,.F.);
#463=ORIENTED_EDGE('',*,*,#368,.F.);
#464=ORIENTED_EDGE('',*,*,#369,.F.);
#465=ORIENTED_EDGE('',*,*,#370,.T.);
#466=ORIENTED_EDGE('',*,*,#371,.T.);
#467=ORIENTED_EDGE('',*,*,#349,.T.);
#468=ORIENTED_EDGE('',*,*,#372,.T.);
#469=ORIENTED_EDGE('',*,*,#371,.F.);
#470=ORIENTED_EDGE('',*,*,#373,.F.);
#471=ORIENTED_EDGE('',*,*,#374,.F.);
#472=ORIENTED_EDGE('',*,*,#350,.F.);
#473=ORIENTED_EDGE('',*,*,#375,.T.);
#474=ORIENTED_EDGE('',*,*,#376,.T.);
#475=ORIENTED_EDGE('',*,*,#351,.T.);
#476=ORIENTED_EDGE('',*,*,#374,.T.);
#477=ORIENTED_EDGE('',*,*,#377,.T.);
#478=ORIENTED_EDGE('',*,*,#378,.T.);
#479=ORIENTED_EDGE('',*,*,#353,.T.);
#480=ORIENTED_EDGE('',*,*,#379,.T.);
#481=ORIENTED_EDGE('',*,*,#378,.F.);
#482=ORIENTED_EDGE('',*,*,#380,.F.);
#483=ORIENTED_EDGE('',*,*,#381,.F.);
#484=ORIENTED_EDGE('',*,*,#354,.F.);
#485=ORIENTED_EDGE('',*,*,#365,.T.);
#486=ORIENTED_EDGE('',*,*,#382,.T.);
#487=ORIENTED_EDGE('',*,*,#383,.F.);
#488=ORIENTED_EDGE('',*,*,#384,.F.);
#489=ORIENTED_EDGE('',*,*,#366,.T.);
#490=ORIENTED_EDGE('',*,*,#384,.T.);
#491=ORIENTED_EDGE('',*,*,#385,.F.);
#492=ORIENTED_EDGE('',*,*,#386,.F.);
#493=ORIENTED_EDGE('',*,*,#367,.T.);
#494=ORIENTED_EDGE('',*,*,#386,.T.);
#495=ORIENTED_EDGE('',*,*,#387,.F.);
#496=ORIENTED_EDGE('',*,*,#388,.F.);
#497=ORIENTED_EDGE('',*,*,#368,.T.);
#498=ORIENTED_EDGE('',*,*,#388,.T.);
#499=ORIENTED_EDGE('',*,*,#389,.F.);
#500=ORIENTED_EDGE('',*,*,#390,.F.);
#501=ORIENTED_EDGE('',*,*,#369,.T.);
#502=ORIENTED_EDGE('',*,*,#390,.T.);
#503=ORIENTED_EDGE('',*,*,#391,.F.);
#504=ORIENTED_EDGE('',*,*,#392,.F.);
#505=ORIENTED_EDGE('',*,*,#364,.T.);
#506=ORIENTED_EDGE('',*,*,#392,.T.);
#507=ORIENTED_EDGE('',*,*,#393,.F.);
#508=ORIENTED_EDGE('',*,*,#382,.F.);
#509=ORIENTED_EDGE('',*,*,#357,.F.);
#510=ORIENTED_EDGE('',*,*,#394,.T.);
#511=ORIENTED_EDGE('',*,*,#395,.F.);
#512=ORIENTED_EDGE('',*,*,#396,.F.);
#513=ORIENTED_EDGE('',*,*,#358,.F.);
#514=ORIENTED_EDGE('',*,*,#396,.T.);
#515=ORIENTED_EDGE('',*,*,#397,.F.);
#516=ORIENTED_EDGE('',*,*,#398,.F.);
#517=ORIENTED_EDGE('',*,*,#359,.F.);
#518=ORIENTED_EDGE('',*,*,#398,.T.);
#519=ORIENTED_EDGE('',*,*,#399,.F.);
#520=ORIENTED_EDGE('',*,*,#400,.F.);
#521=ORIENTED_EDGE('',*,*,#360,.F.);
#522=ORIENTED_EDGE('',*,*,#400,.T.);
#523=ORIENTED_EDGE('',*,*,#401,.F.);
#524=ORIENTED_EDGE('',*,*,#402,.F.);
#525=ORIENTED_EDGE('',*,*,#361,.T.);
#526=ORIENTED_EDGE('',*,*,#402,.T.);
#527=ORIENTED_EDGE('',*,*,#403,.F.);
#528=ORIENTED_EDGE('',*,*,#404,.F.);
#529=ORIENTED_EDGE('',*,*,#362,.T.);
#530=ORIENTED_EDGE('',*,*,#404,.T.);
#531=ORIENTED_EDGE('',*,*,#405,.F.);
#532=ORIENTED_EDGE('',*,*,#406,.F.);
#533=ORIENTED_EDGE('',*,*,#363,.F.);
#534=ORIENTED_EDGE('',*,*,#406,.T.);
#535=ORIENTED_EDGE('',*,*,#407,.F.);
#536=ORIENTED_EDGE('',*,*,#346,.F.);
#537=ORIENTED_EDGE('',*,*,#342,.F.);
#538=ORIENTED_EDGE('',*,*,#408,.F.);
#539=ORIENTED_EDGE('',*,*,#372,.F.);
#540=ORIENTED_EDGE('',*,*,#348,.F.);
#541=ORIENTED_EDGE('',*,*,#376,.F.);
#542=ORIENTED_EDGE('',*,*,#409,.F.);
#543=ORIENTED_EDGE('',*,*,#379,.F.);
#544=ORIENTED_EDGE('',*,*,#352,.F.);
#545=ORIENTED_EDGE('',*,*,#355,.F.);
#546=ORIENTED_EDGE('',*,*,#381,.T.);
#547=ORIENTED_EDGE('',*,*,#410,.F.);
#548=ORIENTED_EDGE('',*,*,#411,.F.);
#549=ORIENTED_EDGE('',*,*,#356,.T.);
#550=ORIENTED_EDGE('',*,*,#411,.T.);
#551=ORIENTED_EDGE('',*,*,#412,.F.);
#552=ORIENTED_EDGE('',*,*,#394,.F.);
#553=ORIENTED_EDGE('',*,*,#341,.F.);
#554=ORIENTED_EDGE('',*,*,#347,.T.);
#555=ORIENTED_EDGE('',*,*,#407,.T.);
#556=ORIENTED_EDGE('',*,*,#405,.T.);
#557=ORIENTED_EDGE('',*,*,#403,.T.);
#558=ORIENTED_EDGE('',*,*,#401,.T.);
#559=ORIENTED_EDGE('',*,*,#399,.T.);
#560=ORIENTED_EDGE('',*,*,#397,.T.);
#561=ORIENTED_EDGE('',*,*,#395,.T.);
#562=ORIENTED_EDGE('',*,*,#412,.T.);
#563=ORIENTED_EDGE('',*,*,#410,.T.);
#564=ORIENTED_EDGE('',*,*,#380,.T.);
#565=ORIENTED_EDGE('',*,*,#377,.F.);
#566=ORIENTED_EDGE('',*,*,#409,.T.);
#567=ORIENTED_EDGE('',*,*,#375,.F.);
#568=ORIENTED_EDGE('',*,*,#373,.T.);
#569=ORIENTED_EDGE('',*,*,#370,.F.);
#570=ORIENTED_EDGE('',*,*,#408,.T.);
#571=ORIENTED_EDGE('',*,*,#331,.T.);
#572=ORIENTED_EDGE('',*,*,#334,.T.);
#573=ORIENTED_EDGE('',*,*,#337,.T.);
#574=ORIENTED_EDGE('',*,*,#340,.T.);
#575=ORIENTED_EDGE('',*,*,#393,.T.);
#576=ORIENTED_EDGE('',*,*,#391,.T.);
#577=ORIENTED_EDGE('',*,*,#389,.T.);
#578=ORIENTED_EDGE('',*,*,#387,.T.);
#579=ORIENTED_EDGE('',*,*,#385,.T.);
#580=ORIENTED_EDGE('',*,*,#383,.T.);
#581=CYLINDRICAL_SURFACE('',#637,2.09999999999997);
#582=CYLINDRICAL_SURFACE('',#641,2.09999999999999);
#583=CYLINDRICAL_SURFACE('',#645,2.10000000000001);
#584=CYLINDRICAL_SURFACE('',#649,2.1);
#585=CYLINDRICAL_SURFACE('',#653,6.);
#586=CYLINDRICAL_SURFACE('',#661,6.);
#587=CYLINDRICAL_SURFACE('',#664,6.);
#588=CYLINDRICAL_SURFACE('',#666,6.);
#589=ADVANCED_FACE('',(#47),#581,.T.);
#590=ADVANCED_FACE('',(#48),#21,.T.);
#591=ADVANCED_FACE('',(#49),#582,.T.);
#592=ADVANCED_FACE('',(#50),#22,.T.);
#593=ADVANCED_FACE('',(#51),#583,.T.);
#594=ADVANCED_FACE('',(#52),#23,.T.);
#595=ADVANCED_FACE('',(#53),#584,.T.);
#596=ADVANCED_FACE('',(#54),#24,.T.);
#597=ADVANCED_FACE('',(#55),#585,.T.);
#598=ADVANCED_FACE('',(#56),#25,.T.);
#599=ADVANCED_FACE('',(#57,#15),#26,.F.);
#600=ADVANCED_FACE('',(#58),#586,.T.);
#601=ADVANCED_FACE('',(#59),#27,.T.);
#602=ADVANCED_FACE('',(#60),#587,.T.);
#603=ADVANCED_FACE('',(#61),#588,.T.);
#604=ADVANCED_FACE('',(#62),#28,.T.);
#605=ADVANCED_FACE('',(#63),#29,.T.);
#606=ADVANCED_FACE('',(#64),#30,.T.);
#607=ADVANCED_FACE('',(#65),#31,.T.);
#608=ADVANCED_FACE('',(#66),#32,.T.);
#609=ADVANCED_FACE('',(#67),#33,.T.);
#610=ADVANCED_FACE('',(#68),#34,.T.);
#611=ADVANCED_FACE('',(#69),#35,.T.);
#612=ADVANCED_FACE('',(#70),#36,.T.);
#613=ADVANCED_FACE('',(#71),#37,.T.);
#614=ADVANCED_FACE('',(#72),#38,.T.);
#615=ADVANCED_FACE('',(#73),#39,.T.);
#616=ADVANCED_FACE('',(#74),#40,.T.);
#617=ADVANCED_FACE('',(#75),#41,.T.);
#618=ADVANCED_FACE('',(#76),#42,.T.);
#619=ADVANCED_FACE('',(#77),#43,.T.);
#620=ADVANCED_FACE('',(#78),#44,.T.);
#621=ADVANCED_FACE('',(#79),#45,.T.);
#622=ADVANCED_FACE('',(#80,#16,#17,#18,#19,#20),#46,.F.);
#623=CLOSED_SHELL('',(#589,#590,#591,#592,#593,#594,#595,#596,#597,#598,
#599,#600,#601,#602,#603,#604,#605,#606,#607,#608,#609,#610,#611,#612,#613,
#614,#615,#616,#617,#618,#619,#620,#621,#622));
#624=DERIVED_UNIT_ELEMENT(#626,1.);
#625=DERIVED_UNIT_ELEMENT(#1037,-3.);
#626=(
MASS_UNIT()
NAMED_UNIT(*)
SI_UNIT(.KILO.,.GRAM.)
);
#627=DERIVED_UNIT((#624,#625));
#628=MEASURE_REPRESENTATION_ITEM('density measure',
POSITIVE_RATIO_MEASURE(7850.),#627);
#629=PROPERTY_DEFINITION_REPRESENTATION(#634,#631);
#630=PROPERTY_DEFINITION_REPRESENTATION(#635,#632);
#631=REPRESENTATION('material name',(#633),#1034);
#632=REPRESENTATION('density',(#628),#1034);
#633=DESCRIPTIVE_REPRESENTATION_ITEM('Steel','Steel');
#634=PROPERTY_DEFINITION('material property','material name',#1044);
#635=PROPERTY_DEFINITION('material property','density of part',#1044);
#636=AXIS2_PLACEMENT_3D('',#857,#687,#688);
#637=AXIS2_PLACEMENT_3D('',#858,#689,#690);
#638=AXIS2_PLACEMENT_3D('',#860,#691,#692);
#639=AXIS2_PLACEMENT_3D('',#863,#694,#695);
#640=AXIS2_PLACEMENT_3D('',#864,#696,#697);
#641=AXIS2_PLACEMENT_3D('',#865,#698,#699);
#642=AXIS2_PLACEMENT_3D('',#867,#700,#701);
#643=AXIS2_PLACEMENT_3D('',#870,#703,#704);
#644=AXIS2_PLACEMENT_3D('',#871,#705,#706);
#645=AXIS2_PLACEMENT_3D('',#872,#707,#708);
#646=AXIS2_PLACEMENT_3D('',#874,#709,#710);
#647=AXIS2_PLACEMENT_3D('',#877,#712,#713);
#648=AXIS2_PLACEMENT_3D('',#878,#714,#715);
#649=AXIS2_PLACEMENT_3D('',#879,#716,#717);
#650=AXIS2_PLACEMENT_3D('',#881,#718,#719);
#651=AXIS2_PLACEMENT_3D('',#884,#721,#722);
#652=AXIS2_PLACEMENT_3D('',#885,#723,#724);
#653=AXIS2_PLACEMENT_3D('',#886,#725,#726);
#654=AXIS2_PLACEMENT_3D('',#889,#727,#728);
#655=AXIS2_PLACEMENT_3D('',#893,#730,#731);
#656=AXIS2_PLACEMENT_3D('',#895,#733,#734);
#657=AXIS2_PLACEMENT_3D('',#901,#738,#739);
#658=AXIS2_PLACEMENT_3D('',#905,#741,#742);
#659=AXIS2_PLACEMENT_3D('',#909,#744,#745);
#660=AXIS2_PLACEMENT_3D('',#913,#747,#748);
#661=AXIS2_PLACEMENT_3D('',#945,#765,#766);
#662=AXIS2_PLACEMENT_3D('',#948,#767,#768);
#663=AXIS2_PLACEMENT_3D('',#951,#771,#772);
#664=AXIS2_PLACEMENT_3D('',#955,#775,#776);
#665=AXIS2_PLACEMENT_3D('',#957,#777,#778);
#666=AXIS2_PLACEMENT_3D('',#959,#780,#781);
#667=AXIS2_PLACEMENT_3D('',#962,#782,#783);
#668=AXIS2_PLACEMENT_3D('',#965,#786,#787);
#669=AXIS2_PLACEMENT_3D('',#969,#790,#791);
#670=AXIS2_PLACEMENT_3D('',#975,#795,#796);
#671=AXIS2_PLACEMENT_3D('',#979,#799,#800);
#672=AXIS2_PLACEMENT_3D('',#983,#803,#804);
#673=AXIS2_PLACEMENT_3D('',#987,#807,#808);
#674=AXIS2_PLACEMENT_3D('',#991,#811,#812);
#675=AXIS2_PLACEMENT_3D('',#993,#814,#815);
#676=AXIS2_PLACEMENT_3D('',#999,#819,#820);
#677=AXIS2_PLACEMENT_3D('',#1003,#823,#824);
#678=AXIS2_PLACEMENT_3D('',#1007,#827,#828);
#679=AXIS2_PLACEMENT_3D('',#1011,#831,#832);
#680=AXIS2_PLACEMENT_3D('',#1015,#835,#836);
#681=AXIS2_PLACEMENT_3D('',#1019,#839,#840);
#682=AXIS2_PLACEMENT_3D('',#1021,#842,#843);
#683=AXIS2_PLACEMENT_3D('',#1023,#845,#846);
#684=AXIS2_PLACEMENT_3D('',#1025,#848,#849);
#685=AXIS2_PLACEMENT_3D('',#1029,#852,#853);
#686=AXIS2_PLACEMENT_3D('',#1031,#855,#856);
#687=DIRECTION('axis',(0.,0.,1.));
#688=DIRECTION('refdir',(1.,0.,0.));
#689=DIRECTION('center_axis',(0.,0.,1.));
#690=DIRECTION('ref_axis',(-1.,0.,0.));
#691=DIRECTION('center_axis',(0.,0.,1.));
#692=DIRECTION('ref_axis',(-1.,0.,0.));
#693=DIRECTION('',(0.,0.,-1.));
#694=DIRECTION('center_axis',(1.22464679914735E-16,0.,-1.));
#695=DIRECTION('ref_axis',(-1.,0.,0.));
#696=DIRECTION('center_axis',(0.,0.,1.));
#697=DIRECTION('ref_axis',(-1.,0.,0.));
#698=DIRECTION('center_axis',(0.,0.,1.));
#699=DIRECTION('ref_axis',(-1.,0.,0.));
#700=DIRECTION('center_axis',(0.,0.,1.));
#701=DIRECTION('ref_axis',(-1.,0.,0.));
#702=DIRECTION('',(0.,0.,-1.));
#703=DIRECTION('center_axis',(1.22464679914735E-16,0.,-1.));
#704=DIRECTION('ref_axis',(-1.,0.,0.));
#705=DIRECTION('center_axis',(0.,0.,1.));
#706=DIRECTION('ref_axis',(-1.,0.,0.));
#707=DIRECTION('center_axis',(0.,0.,1.));
#708=DIRECTION('ref_axis',(-1.,0.,0.));
#709=DIRECTION('center_axis',(0.,0.,1.));
#710=DIRECTION('ref_axis',(-1.,0.,0.));
#711=DIRECTION('',(0.,0.,-1.));
#712=DIRECTION('center_axis',(1.22464679914735E-16,0.,-1.));
#713=DIRECTION('ref_axis',(-1.,0.,0.));
#714=DIRECTION('center_axis',(0.,0.,1.));
#715=DIRECTION('ref_axis',(-1.,0.,0.));
#716=DIRECTION('center_axis',(0.,0.,1.));
#717=DIRECTION('ref_axis',(-1.,0.,0.));
#718=DIRECTION('center_axis',(0.,0.,1.));
#719=DIRECTION('ref_axis',(-1.,0.,0.));
#720=DIRECTION('',(0.,0.,-1.));
#721=DIRECTION('center_axis',(1.22464679914735E-16,0.,-1.));
#722=DIRECTION('ref_axis',(-1.,0.,0.));
#723=DIRECTION('center_axis',(0.,0.,1.));
#724=DIRECTION('ref_axis',(-1.,0.,0.));
#725=DIRECTION('center_axis',(0.,0.,1.));
#726=DIRECTION('ref_axis',(-0.707106781186547,-0.707106781186548,0.));
#727=DIRECTION('center_axis',(1.22464679914735E-16,0.,-1.));
#728=DIRECTION('ref_axis',(-0.707106781186547,-0.707106781186548,0.));
#729=DIRECTION('',(0.,0.,-1.));
#730=DIRECTION('center_axis',(0.,0.,1.));
#731=DIRECTION('ref_axis',(-0.707106781186547,-0.707106781186548,0.));
#732=DIRECTION('',(0.,0.,1.));
#733=DIRECTION('center_axis',(0.,-1.,0.));
#734=DIRECTION('ref_axis',(1.,0.,0.));
#735=DIRECTION('',(-1.,0.,0.));
#736=DIRECTION('',(0.,0.,1.));
#737=DIRECTION('',(-1.,0.,-1.22464679914735E-16));
#738=DIRECTION('center_axis',(0.,0.,1.));
#739=DIRECTION('ref_axis',(1.,0.,0.));
#740=DIRECTION('',(0.,1.,0.));
#741=DIRECTION('center_axis',(0.,0.,1.));
#742=DIRECTION('ref_axis',(-0.707106781186548,0.707106781186547,0.));
#743=DIRECTION('',(1.,0.,0.));
#744=DIRECTION('center_axis',(0.,0.,1.));
#745=DIRECTION('ref_axis',(0.707106781186549,0.707106781186546,0.));
#746=DIRECTION('',(0.,-1.,0.));
#747=DIRECTION('center_axis',(0.,0.,1.));
#748=DIRECTION('ref_axis',(0.707106781186548,-0.707106781186548,0.));
#749=DIRECTION('',(-1.,0.,0.));
#750=DIRECTION('',(0.,1.,0.));
#751=DIRECTION('',(-1.,0.,0.));
#752=DIRECTION('',(0.,1.,0.));
#753=DIRECTION('',(-1.,0.,0.));
#754=DIRECTION('',(0.,-1.,0.));
#755=DIRECTION('',(-1.,0.,0.));
#756=DIRECTION('',(0.,1.,0.));
#757=DIRECTION('',(-1.,0.,0.));
#758=DIRECTION('',(0.,-1.,0.));
#759=DIRECTION('',(0.,1.,0.));
#760=DIRECTION('',(-1.,0.,0.));
#761=DIRECTION('',(0.,-1.,0.));
#762=DIRECTION('',(1.,0.,0.));
#763=DIRECTION('',(0.,-1.,0.));
#764=DIRECTION('',(1.,0.,0.));
#765=DIRECTION('center_axis',(0.,0.,1.));
#766=DIRECTION('ref_axis',(-0.707106781186548,0.707106781186547,0.));
#767=DIRECTION('center_axis',(1.22464679914735E-16,0.,-1.));
#768=DIRECTION('ref_axis',(-0.707106781186548,0.707106781186547,0.));
#769=DIRECTION('',(0.,0.,-1.));
#770=DIRECTION('',(0.,0.,1.));
#771=DIRECTION('center_axis',(0.,1.,0.));
#772=DIRECTION('ref_axis',(-1.,0.,0.));
#773=DIRECTION('',(1.,0.,1.22464679914735E-16));
#774=DIRECTION('',(0.,0.,1.));
#775=DIRECTION('center_axis',(0.,0.,1.));
#776=DIRECTION('ref_axis',(0.707106781186549,0.707106781186546,0.));
#777=DIRECTION('center_axis',(1.22464679914735E-16,0.,-1.));
#778=DIRECTION('ref_axis',(0.707106781186549,0.707106781186546,0.));
#779=DIRECTION('',(0.,0.,-1.));
#780=DIRECTION('center_axis',(0.,0.,1.));
#781=DIRECTION('ref_axis',(0.707106781186548,-0.707106781186548,0.));
#782=DIRECTION('center_axis',(1.22464679914735E-16,0.,-1.));
#783=DIRECTION('ref_axis',(0.707106781186548,-0.707106781186548,0.));
#784=DIRECTION('',(0.,0.,-1.));
#785=DIRECTION('',(0.,0.,1.));
#786=DIRECTION('center_axis',(0.,-1.,0.));
#787=DIRECTION('ref_axis',(1.,0.,0.));
#788=DIRECTION('',(-1.,0.,-1.22464679914735E-16));
#789=DIRECTION('',(0.,0.,1.));
#790=DIRECTION('center_axis',(0.,1.,0.));
#791=DIRECTION('ref_axis',(-1.,0.,0.));
#792=DIRECTION('',(0.,0.,1.));
#793=DIRECTION('',(1.,0.,1.22464679914735E-16));
#794=DIRECTION('',(0.,0.,1.));
#795=DIRECTION('center_axis',(-1.,0.,0.));
#796=DIRECTION('ref_axis',(0.,-1.,0.));
#797=DIRECTION('',(0.,1.,0.));
#798=DIRECTION('',(0.,0.,1.));
#799=DIRECTION('center_axis',(0.,-1.,0.));
#800=DIRECTION('ref_axis',(1.,0.,0.));
#801=DIRECTION('',(-1.,0.,-1.22464679914735E-16));
#802=DIRECTION('',(0.,0.,1.));
#803=DIRECTION('center_axis',(-1.,0.,0.));
#804=DIRECTION('ref_axis',(0.,-1.,0.));
#805=DIRECTION('',(0.,1.,0.));
#806=DIRECTION('',(0.,0.,1.));
#807=DIRECTION('center_axis',(0.,-1.,0.));
#808=DIRECTION('ref_axis',(1.,0.,0.));
#809=DIRECTION('',(-1.,0.,-1.22464679914735E-16));
#810=DIRECTION('',(0.,0.,1.));
#811=DIRECTION('center_axis',(1.,0.,0.));
#812=DIRECTION('ref_axis',(0.,1.,0.));
#813=DIRECTION('',(0.,-1.,0.));
#814=DIRECTION('center_axis',(-1.,0.,0.));
#815=DIRECTION('ref_axis',(0.,-1.,0.));
#816=DIRECTION('',(0.,0.,1.));
#817=DIRECTION('',(0.,1.,0.));
#818=DIRECTION('',(0.,0.,1.));
#819=DIRECTION('center_axis',(0.,-1.,0.));
#820=DIRECTION('ref_axis',(1.,0.,0.));
#821=DIRECTION('',(-1.,0.,-1.22464679914735E-16));
#822=DIRECTION('',(0.,0.,1.));
#823=DIRECTION('center_axis',(1.,0.,0.));
#824=DIRECTION('ref_axis',(0.,1.,0.));
#825=DIRECTION('',(0.,-1.,0.));
#826=DIRECTION('',(0.,0.,1.));
#827=DIRECTION('center_axis',(0.,-1.,0.));
#828=DIRECTION('ref_axis',(1.,0.,0.));
#829=DIRECTION('',(-1.,0.,-1.22464679914735E-16));
#830=DIRECTION('',(0.,0.,1.));
#831=DIRECTION('center_axis',(1.,0.,0.));
#832=DIRECTION('ref_axis',(0.,1.,0.));
#833=DIRECTION('',(0.,-1.,0.));
#834=DIRECTION('',(0.,0.,1.));
#835=DIRECTION('center_axis',(0.,1.,0.));
#836=DIRECTION('ref_axis',(-1.,0.,0.));
#837=DIRECTION('',(1.,0.,1.22464679914735E-16));
#838=DIRECTION('',(0.,0.,1.));
#839=DIRECTION('center_axis',(1.,0.,0.));
#840=DIRECTION('ref_axis',(0.,1.,0.));
#841=DIRECTION('',(0.,-1.,0.));
#842=DIRECTION('center_axis',(-1.,0.,0.));
#843=DIRECTION('ref_axis',(0.,-1.,0.));
#844=DIRECTION('',(0.,1.,0.));
#845=DIRECTION('center_axis',(1.,0.,0.));
#846=DIRECTION('ref_axis',(0.,1.,0.));
#847=DIRECTION('',(0.,-1.,0.));
#848=DIRECTION('center_axis',(-1.,0.,0.));
#849=DIRECTION('ref_axis',(0.,-1.,0.));
#850=DIRECTION('',(0.,1.,0.));
#851=DIRECTION('',(0.,0.,1.));
#852=DIRECTION('center_axis',(0.,1.,0.));
#853=DIRECTION('ref_axis',(-1.,0.,0.));
#854=DIRECTION('',(1.,0.,1.22464679914735E-16));
#855=DIRECTION('center_axis',(1.22464679914735E-16,0.,-1.));
#856=DIRECTION('ref_axis',(-1.,0.,-1.22464679914735E-16));
#857=CARTESIAN_POINT('',(0.,0.,0.));
#858=CARTESIAN_POINT('Origin',(161.6875,-187.6438,2.));
#859=CARTESIAN_POINT('',(163.7875,-187.6438,8.));
#860=CARTESIAN_POINT('Origin',(161.6875,-187.6438,8.));
#861=CARTESIAN_POINT('',(163.7875,-187.6438,2.));
#862=CARTESIAN_POINT('',(163.7875,-187.6438,2.));
#863=CARTESIAN_POINT('Origin',(161.6875,-187.6438,2.));
#864=CARTESIAN_POINT('Origin',(161.6875,-187.6438,8.));
#865=CARTESIAN_POINT('Origin',(-14.,-187.6438,2.));
#866=CARTESIAN_POINT('',(-11.9,-187.6438,8.));
#867=CARTESIAN_POINT('Origin',(-14.,-187.6438,8.));
#868=CARTESIAN_POINT('',(-11.9,-187.6438,2.));
#869=CARTESIAN_POINT('',(-11.9,-187.6438,2.));
#870=CARTESIAN_POINT('Origin',(-14.,-187.6438,2.));
#871=CARTESIAN_POINT('Origin',(-14.,-187.6438,8.));
#872=CARTESIAN_POINT('Origin',(161.6875,19.,2.));
#873=CARTESIAN_POINT('',(163.7875,19.,8.));
#874=CARTESIAN_POINT('Origin',(161.6875,19.,8.));
#875=CARTESIAN_POINT('',(163.7875,19.,2.));
#876=CARTESIAN_POINT('',(163.7875,19.,2.));
#877=CARTESIAN_POINT('Origin',(161.6875,19.,2.));
#878=CARTESIAN_POINT('Origin',(161.6875,19.,8.));
#879=CARTESIAN_POINT('Origin',(-14.,19.,2.));
#880=CARTESIAN_POINT('',(-11.9,19.,8.));
#881=CARTESIAN_POINT('Origin',(-14.,19.,8.));
#882=CARTESIAN_POINT('',(-11.9,19.,2.));
#883=CARTESIAN_POINT('',(-11.9,19.,2.));
#884=CARTESIAN_POINT('Origin',(-14.,19.,2.));
#885=CARTESIAN_POINT('Origin',(-14.,19.,8.));
#886=CARTESIAN_POINT('Origin',(-14.,-187.6438,0.));
#887=CARTESIAN_POINT('',(-14.,-193.6438,1.99999999999999));
#888=CARTESIAN_POINT('',(-20.,-187.6438,1.99999999999999));
#889=CARTESIAN_POINT('Origin',(-14.,-187.6438,2.));
#890=CARTESIAN_POINT('',(-20.,-187.6438,0.));
#891=CARTESIAN_POINT('',(-20.,-187.6438,0.));
#892=CARTESIAN_POINT('',(-14.,-193.6438,0.));
#893=CARTESIAN_POINT('Origin',(-14.,-187.6438,0.));
#894=CARTESIAN_POINT('',(-14.,-193.6438,0.));
#895=CARTESIAN_POINT('Origin',(-20.,-193.6438,0.));
#896=CARTESIAN_POINT('',(-5.,-193.6438,0.));
#897=CARTESIAN_POINT('',(167.6875,-193.6438,0.));
#898=CARTESIAN_POINT('',(-5.,-193.6438,1.99999999999999));
#899=CARTESIAN_POINT('',(-5.,-193.6438,0.));
#900=CARTESIAN_POINT('',(-59.6875,-193.6438,1.99999999999999));
#901=CARTESIAN_POINT('Origin',(73.84375,-84.3219,0.));
#902=CARTESIAN_POINT('',(-20.,19.,0.));
#903=CARTESIAN_POINT('',(-20.,-193.6438,0.));
#904=CARTESIAN_POINT('',(-14.,25.,0.));
#905=CARTESIAN_POINT('Origin',(-14.,19.,0.));
#906=CARTESIAN_POINT('',(161.6875,25.,0.));
#907=CARTESIAN_POINT('',(-20.,25.,0.));
#908=CARTESIAN_POINT('',(167.6875,19.,0.));
#909=CARTESIAN_POINT('Origin',(161.6875,19.,0.));
#910=CARTESIAN_POINT('',(167.6875,-187.6438,0.));
#911=CARTESIAN_POINT('',(167.6875,25.,0.));
#912=CARTESIAN_POINT('',(161.6875,-193.6438,0.));
#913=CARTESIAN_POINT('Origin',(161.6875,-187.6438,0.));
#914=CARTESIAN_POINT('',(15.,-193.6438,0.));
#915=CARTESIAN_POINT('',(167.6875,-193.6438,0.));
#916=CARTESIAN_POINT('',(15.,-183.6438,0.));
#917=CARTESIAN_POINT('',(15.,-193.6438,0.));
#918=CARTESIAN_POINT('',(44.,-183.6438,0.));
#919=CARTESIAN_POINT('',(157.6875,-183.6438,0.));
#920=CARTESIAN_POINT('',(44.,-5.,0.));
#921=CARTESIAN_POINT('',(44.,-185.,0.));
#922=CARTESIAN_POINT('',(18.,-5.,0.));
#923=CARTESIAN_POINT('',(44.,-5.,0.));
#924=CARTESIAN_POINT('',(18.,-141.000002101064,0.));
#925=CARTESIAN_POINT('',(18.,15.,0.));
#926=CARTESIAN_POINT('',(-10.,-141.,0.));
#927=CARTESIAN_POINT('',(18.,-141.,0.));
#928=CARTESIAN_POINT('',(-10.,-183.6438,0.));
#929=CARTESIAN_POINT('',(-10.,-183.6438,0.));
#930=CARTESIAN_POINT('',(-5.,-183.6438,0.));
#931=CARTESIAN_POINT('',(157.6875,-183.6438,0.));
#932=CARTESIAN_POINT('',(-5.,-183.6438,0.));
#933=CARTESIAN_POINT('',(54.,-183.6438,0.));
#934=CARTESIAN_POINT('',(54.,15.,0.));
#935=CARTESIAN_POINT('',(54.,15.,0.));
#936=CARTESIAN_POINT('',(157.6875,-183.6438,0.));
#937=CARTESIAN_POINT('',(157.6875,-183.6438,0.));
#938=CARTESIAN_POINT('',(157.6875,-5.,0.));
#939=CARTESIAN_POINT('',(157.6875,-148.1438,0.));
#940=CARTESIAN_POINT('',(117.6875,-5.,0.));
#941=CARTESIAN_POINT('',(117.6875,-5.,0.));
#942=CARTESIAN_POINT('',(117.6875,15.,0.));
#943=CARTESIAN_POINT('',(117.6875,15.,0.));
#944=CARTESIAN_POINT('',(-10.,15.,0.));
#945=CARTESIAN_POINT('Origin',(-14.,19.,0.));
#946=CARTESIAN_POINT('',(-20.,19.,1.99999999999999));
#947=CARTESIAN_POINT('',(-14.,25.,1.99999999999999));
#948=CARTESIAN_POINT('Origin',(-14.,19.,2.));
#949=CARTESIAN_POINT('',(-14.,25.,0.));
#950=CARTESIAN_POINT('',(-20.,19.,0.));
#951=CARTESIAN_POINT('Origin',(167.6875,25.,0.));
#952=CARTESIAN_POINT('',(161.6875,25.,2.00000000000001));
#953=CARTESIAN_POINT('',(128.,25.,2.00000000000001));
#954=CARTESIAN_POINT('',(161.6875,25.,0.));
#955=CARTESIAN_POINT('Origin',(161.6875,19.,0.));
#956=CARTESIAN_POINT('',(167.6875,19.,2.00000000000001));
#957=CARTESIAN_POINT('Origin',(161.6875,19.,2.));
#958=CARTESIAN_POINT('',(167.6875,19.,0.));
#959=CARTESIAN_POINT('Origin',(161.6875,-187.6438,0.));
#960=CARTESIAN_POINT('',(167.6875,-187.6438,2.00000000000001));
#961=CARTESIAN_POINT('',(161.6875,-193.6438,2.00000000000001));
#962=CARTESIAN_POINT('Origin',(161.6875,-187.6438,2.));
#963=CARTESIAN_POINT('',(161.6875,-193.6438,0.));
#964=CARTESIAN_POINT('',(167.6875,-187.6438,0.));
#965=CARTESIAN_POINT('Origin',(15.,-193.6438,0.));
#966=CARTESIAN_POINT('',(15.,-193.6438,2.));
#967=CARTESIAN_POINT('',(-59.6875,-193.6438,1.99999999999999));
#968=CARTESIAN_POINT('',(15.,-193.6438,0.));
#969=CARTESIAN_POINT('Origin',(157.6875,-183.6438,0.));
#970=CARTESIAN_POINT('',(54.,-183.6438,2.));
#971=CARTESIAN_POINT('',(54.,-183.6438,0.));
#972=CARTESIAN_POINT('',(157.6875,-183.6438,2.00000000000001));
#973=CARTESIAN_POINT('',(-49.6875,-183.6438,1.99999999999999));
#974=CARTESIAN_POINT('',(157.6875,-183.6438,0.));
#975=CARTESIAN_POINT('Origin',(157.6875,-4.99999999999998,0.));
#976=CARTESIAN_POINT('',(157.6875,-5.,2.00000000000001));
#977=CARTESIAN_POINT('',(157.6875,-44.66095,2.00000000000001));
#978=CARTESIAN_POINT('',(157.6875,-5.,0.));
#979=CARTESIAN_POINT('Origin',(117.6875,-5.,0.));
#980=CARTESIAN_POINT('',(117.6875,-5.,2.00000000000001));
#981=CARTESIAN_POINT('',(-9.6875,-5.,1.99999999999999));
#982=CARTESIAN_POINT('',(117.6875,-5.,0.));
#983=CARTESIAN_POINT('Origin',(117.6875,15.,0.));
#984=CARTESIAN_POINT('',(117.6875,15.,2.00000000000001));
#985=CARTESIAN_POINT('',(117.6875,-34.66095,2.00000000000001));
#986=CARTESIAN_POINT('',(117.6875,15.,0.));
#987=CARTESIAN_POINT('Origin',(54.,15.,0.));
#988=CARTESIAN_POINT('',(54.,15.,2.));
#989=CARTESIAN_POINT('',(118.,15.,2.00000000000001));
#990=CARTESIAN_POINT('',(54.,15.,0.));
#991=CARTESIAN_POINT('Origin',(54.,-183.6438,0.));
#992=CARTESIAN_POINT('',(54.,-133.98285,2.));
#993=CARTESIAN_POINT('Origin',(44.,-5.,0.));
#994=CARTESIAN_POINT('',(44.,-183.6438,2.));
#995=CARTESIAN_POINT('',(44.,-183.6438,0.));
#996=CARTESIAN_POINT('',(44.,-5.,2.));
#997=CARTESIAN_POINT('',(44.,-44.66095,2.));
#998=CARTESIAN_POINT('',(44.,-5.,0.));
#999=CARTESIAN_POINT('Origin',(18.,-5.,0.));
#1000=CARTESIAN_POINT('',(18.,-5.,2.));
#1001=CARTESIAN_POINT('',(64.,-5.,2.));
#1002=CARTESIAN_POINT('',(18.,-5.,0.));
#1003=CARTESIAN_POINT('Origin',(18.,-141.,0.));
#1004=CARTESIAN_POINT('',(18.,-141.,2.));
#1005=CARTESIAN_POINT('',(18.,-112.66095,2.));
#1006=CARTESIAN_POINT('',(18.,-141.000002101064,0.));
#1007=CARTESIAN_POINT('Origin',(-10.,-141.,0.));
#1008=CARTESIAN_POINT('',(-10.,-141.,1.99999999999999));
#1009=CARTESIAN_POINT('',(90.,-141.,2.));
#1010=CARTESIAN_POINT('',(-10.,-141.,0.));
#1011=CARTESIAN_POINT('Origin',(-10.,-183.6438,0.));
#1012=CARTESIAN_POINT('',(-10.,-183.6438,1.99999999999999));
#1013=CARTESIAN_POINT('',(-10.,-133.98285,1.99999999999999));
#1014=CARTESIAN_POINT('',(-10.,-183.6438,0.));
#1015=CARTESIAN_POINT('Origin',(-5.,-183.6438,0.));
#1016=CARTESIAN_POINT('',(-5.,-183.6438,1.99999999999999));
#1017=CARTESIAN_POINT('',(-49.6875,-183.6438,1.99999999999999));
#1018=CARTESIAN_POINT('',(-5.,-183.6438,0.));
#1019=CARTESIAN_POINT('Origin',(-5.,-193.6438,0.));
#1020=CARTESIAN_POINT('',(-5.,-138.98285,1.99999999999999));
#1021=CARTESIAN_POINT('Origin',(-20.,25.,0.));
#1022=CARTESIAN_POINT('',(-20.,-29.66095,1.99999999999999));
#1023=CARTESIAN_POINT('Origin',(167.6875,-193.6438,0.));
#1024=CARTESIAN_POINT('',(167.6875,-138.98285,2.00000000000001));
#1025=CARTESIAN_POINT('Origin',(15.,-183.6438,0.));
#1026=CARTESIAN_POINT('',(15.,-183.6438,2.));
#1027=CARTESIAN_POINT('',(15.,-133.98285,2.));
#1028=CARTESIAN_POINT('',(15.,-183.6438,0.));
#1029=CARTESIAN_POINT('Origin',(44.,-183.6438,0.));
#1030=CARTESIAN_POINT('',(-49.6875,-183.6438,1.99999999999999));
#1031=CARTESIAN_POINT('Origin',(34.15625,-84.3219,2.));
#1032=UNCERTAINTY_MEASURE_WITH_UNIT(LENGTH_MEASURE(0.01),#1036,
'DISTANCE_ACCURACY_VALUE',
'Maximum model space distance between geometric entities at asserted c
onnectivities');
#1033=UNCERTAINTY_MEASURE_WITH_UNIT(LENGTH_MEASURE(0.01),#1036,
'DISTANCE_ACCURACY_VALUE',
'Maximum model space distance between geometric entities at asserted c
onnectivities');
#1034=(
GEOMETRIC_REPRESENTATION_CONTEXT(3)
GLOBAL_UNCERTAINTY_ASSIGNED_CONTEXT((#1032))
GLOBAL_UNIT_ASSIGNED_CONTEXT((#1036,#1038,#1039))
REPRESENTATION_CONTEXT('','3D')
);
#1035=(
GEOMETRIC_REPRESENTATION_CONTEXT(3)
GLOBAL_UNCERTAINTY_ASSIGNED_CONTEXT((#1033))
GLOBAL_UNIT_ASSIGNED_CONTEXT((#1036,#1038,#1039))
REPRESENTATION_CONTEXT('','3D')
);
#1036=(
LENGTH_UNIT()
NAMED_UNIT(*)
SI_UNIT(.MILLI.,.METRE.)
);
#1037=(
LENGTH_UNIT()
NAMED_UNIT(*)
SI_UNIT($,.METRE.)
);
#1038=(
NAMED_UNIT(*)
PLANE_ANGLE_UNIT()
SI_UNIT($,.RADIAN.)
);
#1039=(
NAMED_UNIT(*)
SI_UNIT($,.STERADIAN.)
SOLID_ANGLE_UNIT()
);
#1040=SHAPE_DEFINITION_REPRESENTATION(#1041,#1042);
#1041=PRODUCT_DEFINITION_SHAPE('',$,#1044);
#1042=SHAPE_REPRESENTATION('',(#636),#1034);
#1043=PRODUCT_DEFINITION_CONTEXT('part definition',#1048,'design');
#1044=PRODUCT_DEFINITION('2026-04-16-19-10-06-869',
'EasySplit-Right-Top v13',#1045,#1043);
#1045=PRODUCT_DEFINITION_FORMATION('',$,#1050);
#1046=PRODUCT_RELATED_PRODUCT_CATEGORY('EasySplit-Right-Top v13',
'EasySplit-Right-Top v13',(#1050));
#1047=APPLICATION_PROTOCOL_DEFINITION('international standard',
'automotive_design',2009,#1048);
#1048=APPLICATION_CONTEXT(
'Core Data for Automotive Mechanical Design Process');
#1049=PRODUCT_CONTEXT('part definition',#1048,'mechanical');
#1050=PRODUCT('2026-04-16-19-10-06-869','EasySplit-Right-Top v13',$,(#1049));
#1051=PRESENTATION_STYLE_ASSIGNMENT((#1052));
#1052=SURFACE_STYLE_USAGE(.BOTH.,#1053);
#1053=SURFACE_SIDE_STYLE('',(#1054));
#1054=SURFACE_STYLE_FILL_AREA(#1055);
#1055=FILL_AREA_STYLE('Steel - Satin',(#1056));
#1056=FILL_AREA_STYLE_COLOUR('Steel - Satin',#1057);
#1057=COLOUR_RGB('Steel - Satin',0.627450980392157,0.627450980392157,0.627450980392157);
ENDSEC;
END-ISO-10303-21;
